<svg width="252" height="144" viewBox="0 0 252 144" fill="none" xmlns="http://www.w3.org/2000/svg">
<g clip-path="url(#clip0_120_2392)">
<path d="M181.386 36.2293L180.358 34.5569C184.439 28.6709 181.99 20.9582 173.289 25.253C173.289 25.253 173.02 24.916 172.616 24.5385C172.628 26.2272 172.367 27.8996 171.787 29.4828C171.2 31.0984 170.42 33.2295 169.139 34.5528C168.167 36.0142 165.045 39.0668 161.939 38.8192C159.964 38.6609 156.042 36.96 156.042 36.96C155.597 36.757 147.908 46.3248 146.745 47.77C146.729 47.7903 146.712 47.8106 146.696 47.8309C146.667 47.8714 146.643 47.8999 146.627 47.9202C146.61 47.9405 146.602 47.9526 146.602 47.9526H161.666C163.76 46.2761 166.351 45.4318 169.122 45.5861C171.33 45.7078 173.652 46.471 175.926 47.9526H180.493C182.248 45.8905 184.129 44.1044 186.129 42.6106C188.231 41.0396 190.467 39.7772 192.838 38.8354C189.226 35.4297 185.929 34.2525 181.386 36.2293Z" fill="#5BA006"/>
<path d="M129.751 47.9526H129.984L129.751 48.0222V47.9526Z" fill="#E59730"/>
<path d="M156.038 36.956C155.997 36.9154 155.728 36.6515 155.479 36.4039C155.442 36.3674 155.405 36.3308 155.369 36.2943C155.332 36.2578 155.295 36.2212 155.258 36.1847L154.94 35.8681C154.83 35.7625 154.716 35.6489 154.601 35.5312C154.365 35.2998 154.116 35.0522 153.85 34.7924C153.683 34.6259 153.512 34.4554 153.336 34.285C153.25 34.1956 153.161 34.1063 153.071 34.0211C152.981 33.9318 152.891 33.8425 152.797 33.7532C152.671 33.6233 152.544 33.4974 152.414 33.3716C152.255 33.2133 152.091 33.0509 151.928 32.8926C151.781 32.7424 151.63 32.5963 151.479 32.4461H151.475C150.63 31.618 149.749 30.7493 148.879 29.9009C148.663 29.6898 148.447 29.4787 148.231 29.2676C147.586 28.6425 146.957 28.0296 146.365 27.4572C146.165 27.2583 145.97 27.0716 145.778 26.8889C145.692 26.8077 145.61 26.7265 145.529 26.6494C145.414 26.5398 145.304 26.4342 145.198 26.3328C145.006 26.146 144.819 25.9715 144.643 25.801C144.549 25.7117 144.459 25.6264 144.37 25.5453C144.178 25.3626 143.998 25.1921 143.831 25.0338C143.627 24.843 143.439 24.6725 143.276 24.5223L140.452 26.7468L147.831 34.2119L151.181 37.6014C150.243 38.3727 149.3 39.0019 148.353 39.4809C148.263 39.5296 148.173 39.5742 148.084 39.6148C147.761 39.7731 147.435 39.9071 147.112 40.0248C146.961 40.0816 146.81 40.1344 146.655 40.1831C146.614 40.1953 146.578 40.2075 146.537 40.2197C146.525 40.2197 146.512 40.2278 146.5 40.2318C146.398 40.2643 146.296 40.2927 146.198 40.3171C145.9 40.3942 145.606 40.4592 145.308 40.5079C145.186 40.5241 145.068 40.5444 144.945 40.5566C144.868 40.5688 144.79 40.5769 144.712 40.585C144.59 40.5972 144.468 40.6053 144.345 40.6134C144.272 40.6175 144.202 40.6215 144.129 40.6215C144.043 40.6256 143.957 40.6297 143.876 40.6297C143.688 40.6297 143.504 40.6297 143.317 40.6134C143.227 40.6094 143.129 40.6053 143.035 40.5972C142.99 40.5931 142.945 40.5891 142.905 40.585C142.802 40.5728 142.7 40.5606 142.598 40.5485C142.451 40.5282 142.305 40.5079 142.158 40.4795C142.088 40.4713 142.027 40.4592 141.962 40.4429C141.798 40.4105 141.639 40.3739 141.476 40.3333C141.203 40.2684 140.925 40.1872 140.648 40.0979C140.435 40.0248 140.219 39.9477 140.003 39.8624C139.893 39.8219 139.786 39.7772 139.676 39.7285C139.566 39.6838 139.46 39.6351 139.35 39.5864C139.28 39.558 139.211 39.5255 139.142 39.489C138.787 39.3226 138.427 39.1358 138.068 38.9288C137.95 38.8639 137.836 38.7948 137.721 38.7258C137.583 38.6447 137.444 38.5594 137.305 38.4701C137.215 38.4133 137.125 38.3564 137.032 38.2915C136.693 38.0682 136.35 37.8287 135.999 37.5689C136.73 42.2859 135.338 45.7647 131.134 47.6117L129.983 47.9527H146.602C146.602 47.9527 146.61 47.9405 146.627 47.9202C146.643 47.8999 146.667 47.8715 146.696 47.8309C146.712 47.8106 146.729 47.7903 146.745 47.77C147.908 46.3249 155.597 36.7571 156.042 36.96H156.038V36.956Z" fill="#E59730"/>
<path d="M151.181 37.6014C150.243 38.3727 149.3 39.0019 148.353 39.4809C148.263 39.5296 148.173 39.5742 148.084 39.6148C147.761 39.7732 147.435 39.9071 147.112 40.0248C146.961 40.0817 146.81 40.1344 146.655 40.1831C146.614 40.1953 146.578 40.2075 146.537 40.2197C146.525 40.2197 146.512 40.2278 146.5 40.2319C146.398 40.2643 146.296 40.2927 146.198 40.3171C145.9 40.3942 145.606 40.4592 145.308 40.5079C145.186 40.5241 145.068 40.5444 144.945 40.5566C144.868 40.5688 144.79 40.5769 144.712 40.585C144.59 40.5972 144.468 40.6053 144.345 40.6134C144.272 40.6175 144.202 40.6216 144.129 40.6216C144.043 40.6256 143.957 40.6297 143.876 40.6297C143.688 40.6297 143.504 40.6297 143.317 40.6134C143.227 40.6094 143.129 40.6053 143.035 40.5972C142.99 40.5931 142.945 40.5891 142.905 40.585C142.802 40.5728 142.7 40.5607 142.598 40.5485C142.451 40.5282 142.305 40.5079 142.158 40.4795C142.088 40.4714 142.027 40.4592 141.962 40.4429C141.798 40.4105 141.639 40.3739 141.476 40.3333C141.203 40.2684 140.925 40.1872 140.648 40.0979C140.435 40.0248 140.219 39.9477 140.003 39.8625C139.893 39.8219 139.786 39.7772 139.676 39.7285C139.566 39.6839 139.46 39.6351 139.35 39.5864C139.28 39.558 139.211 39.5255 139.142 39.489C138.787 39.3226 138.427 39.1358 138.068 38.9288C137.95 38.8639 137.836 38.7949 137.721 38.7259C137.583 38.6447 137.444 38.5594 137.305 38.4701C137.215 38.4133 137.125 38.3565 137.032 38.2915C136.693 38.0682 136.35 37.8287 135.999 37.569C135.909 36.9885 135.787 36.3836 135.632 35.7626C135.522 35.4622 135.399 35.1658 135.26 34.8654C134.84 33.944 134.297 33.0266 133.636 32.1092L140.452 26.7468L147.831 34.2119L151.181 37.6014Z" fill="#FCBC04"/>
<path d="M172.534 23.0569C172.302 23.3492 172.065 23.6374 171.828 23.9215C170.645 25.3179 169.375 26.5357 168.053 27.0472C166.212 27.7617 164.821 28.472 161.748 27.5343C161.319 27.4085 160.858 27.2461 160.36 27.0472C156.715 25.598 149.871 17.4591 145.202 11.2971C144.68 11.6502 144.153 12.0278 143.627 12.4337C142.154 13.4648 140.77 17.7108 141.586 20.5523C142.08 22.6144 144.035 24.2057 143.423 24.4087L143.276 24.5223C143.439 24.6725 143.627 24.843 143.831 25.0338C143.998 25.1921 144.178 25.3626 144.37 25.5453C144.459 25.6265 144.549 25.7117 144.643 25.801C144.819 25.9715 145.006 26.146 145.198 26.3328C145.304 26.4343 145.414 26.5398 145.529 26.6494C145.61 26.7265 145.692 26.8077 145.778 26.8889C145.969 27.0716 146.165 27.2583 146.365 27.4572C146.957 28.0296 147.586 28.6425 148.231 29.2677C148.447 29.4787 148.663 29.6898 148.879 29.9009C149.749 30.7493 150.63 31.618 151.475 32.4461H151.479C151.63 32.5963 151.781 32.7424 151.928 32.8926C152.091 33.0509 152.255 33.2133 152.414 33.3716C152.544 33.4975 152.671 33.6233 152.797 33.7532C152.891 33.8425 152.981 33.9318 153.071 34.0211C153.161 34.1064 153.25 34.1957 153.336 34.285C153.512 34.4555 153.683 34.6259 153.85 34.7924C154.116 35.0522 154.365 35.2998 154.601 35.5312C154.716 35.6489 154.83 35.7626 154.94 35.8681L155.258 36.1847C155.295 36.2213 155.332 36.2578 155.369 36.2943C155.405 36.3309 155.442 36.3674 155.479 36.4039C155.728 36.6515 155.997 36.9154 156.038 36.956H156.042C156.042 36.956 159.964 38.6609 161.939 38.8192C165.045 39.0668 168.167 36.0142 169.139 34.5529C170.42 33.2295 171.2 31.0984 171.787 29.4828C172.367 27.8997 172.628 26.2272 172.616 24.5386C172.612 24.0433 172.583 23.5481 172.534 23.0569Z" fill="#FCBC04"/>
<path d="M172.534 23.0528C172.302 23.3492 172.065 23.6374 171.828 23.9215C170.645 25.3179 169.375 26.5357 168.053 27.0472C166.212 27.7616 164.821 28.472 161.748 27.5343C161.319 27.4085 160.858 27.2461 160.36 27.0472C156.715 25.598 149.871 17.4591 145.202 11.2971C159.352 1.77799 171.412 12.2673 172.534 23.0528Z" fill="#F9E109"/>
<path d="M135.632 35.7625C135.354 35.7991 135.085 35.8315 134.82 35.864C134.681 35.8803 134.546 35.8965 134.411 35.9087C134.281 35.9208 134.146 35.9371 134.016 35.9452C133.693 35.9736 133.383 35.998 133.081 36.0102C132.914 36.0183 132.746 36.0223 132.587 36.0223H132.575C132.416 36.0223 132.261 36.0183 132.11 36.0102C132.004 36.0102 131.901 35.998 131.799 35.9899C131.542 35.9696 131.293 35.9371 131.057 35.8884C131.024 35.8843 130.995 35.8762 130.963 35.8681C130.914 35.86 130.869 35.8478 130.82 35.8356C130.791 35.8275 130.759 35.8194 130.73 35.8112C130.718 35.8112 130.706 35.8072 130.693 35.8031C130.604 35.7788 130.514 35.7504 130.424 35.7219C130.351 35.6935 130.277 35.6692 130.208 35.6367C130.196 35.6326 130.187 35.6286 130.175 35.6245C130.13 35.6123 130.085 35.592 130.045 35.5717C130.024 35.5636 130 35.5515 129.979 35.5393C129.91 35.5109 129.845 35.4784 129.779 35.4418C129.771 35.4378 129.759 35.4297 129.751 35.4256C129.608 35.3485 129.473 35.2592 129.343 35.1658C129.122 35.5474 128.902 35.9249 128.677 36.2943C128.657 36.3268 128.641 36.3552 128.624 36.3836C128.424 36.7084 128.22 37.0331 128.016 37.3497C128.008 37.366 127.996 37.3781 127.988 37.3944C127.237 36.1279 125.437 35.3972 124.649 36.1806L122.608 38.2103C122.102 36.9154 121.862 35.4013 121.792 33.7451C122.388 31.4353 123.494 28.7724 124.853 25.9349C125.261 22.9879 122.404 21.7701 120.825 22.927C119.752 24.0027 119.662 25.3098 118.731 26.2353C118.731 26.2353 116.283 22.176 115.466 20.5523C114.981 19.5862 113.197 19.7688 112.001 20.5036C111.593 20.7512 111.254 21.0678 111.059 21.421C110.773 19.639 110.936 17.6742 111.32 15.6243L110.977 15.0682C107.883 13.4282 106.414 10.7247 106.133 7.24587C110.361 4.07555 117.234 4.99702 119.344 14.2604C130.183 14.0818 134.011 18.3927 132.995 25.8091C132.816 27.1406 132.477 28.5694 131.995 30.0917C132.603 30.7655 133.154 31.4353 133.636 32.1092C134.297 33.0266 134.84 33.944 135.26 34.8654C135.399 35.1658 135.522 35.4621 135.632 35.7625Z" fill="#9BCD1B"/>
<path d="M114.646 28.6669C114.646 28.6669 114.544 28.6222 114.405 28.5654C114.356 28.541 114.299 28.5167 114.242 28.4923C112.867 27.8875 108.373 25.939 106.488 25.4235C106.084 25.3139 105.684 25.3707 105.312 25.5412C105.439 22.176 103.529 18.9854 99.7862 17.6905C101.158 17.1871 102.357 16.9679 103.223 17.3049C101.786 13.0142 103.41 9.28365 106.133 7.24588C106.414 10.7247 107.883 13.4282 110.977 15.0682L111.32 15.6243C110.936 17.6743 110.773 19.639 111.059 21.421C110.863 21.7782 110.814 22.172 110.977 22.582C111.601 24.1326 113.422 26.8808 114.242 28.0783C114.299 28.1635 114.352 28.2406 114.405 28.3137C114.446 28.3746 114.487 28.4355 114.519 28.4842C114.528 28.4923 114.532 28.4964 114.536 28.5045C114.593 28.5938 114.634 28.6506 114.646 28.6669Z" fill="#7AB92D"/>
<path d="M109.344 44.0963L117.099 47.9527H102.496L100.978 45.1111C105.994 41.5714 106.7 36.477 103.835 30.0917C103.867 30.0389 103.904 29.9862 103.933 29.9293C104.067 30.0755 104.239 30.2013 104.447 30.2947C106.398 31.1755 111.214 32.917 114.773 34.7437C115.311 35.0197 115.817 35.2957 116.283 35.5718C116.421 35.4743 116.634 36.2334 116.825 37.2645C117.164 39.079 117.429 41.7338 117.099 42.0667C116.813 42.3549 111.793 39.6311 111.793 39.6311C109.344 38.4133 106.488 42.0667 109.344 44.0963Z" fill="#7AB92D"/>
<path d="M131.134 47.6117L129.983 47.9526H123.066V46.8323C123.066 46.8323 126.282 42.2696 127.914 39.834C128.498 38.9653 128.404 38.0966 127.988 37.3944C127.996 37.3781 128.008 37.366 128.016 37.3497C128.22 37.0331 128.424 36.7083 128.624 36.3836C128.641 36.3552 128.657 36.3268 128.677 36.2943C128.902 35.9249 129.122 35.5474 129.343 35.1658C129.473 35.2592 129.608 35.3485 129.751 35.4256C129.759 35.4256 129.771 35.4378 129.779 35.4418C129.845 35.4784 129.91 35.5108 129.979 35.5393C130 35.5514 130.024 35.5636 130.045 35.5717C130.085 35.592 130.13 35.6123 130.175 35.6245C130.187 35.6286 130.196 35.6326 130.208 35.6367C130.277 35.6692 130.351 35.6935 130.424 35.7219C130.514 35.7503 130.604 35.7788 130.693 35.8031C130.706 35.8031 130.718 35.8112 130.73 35.8112C130.759 35.8194 130.791 35.8275 130.82 35.8356C130.869 35.8478 130.914 35.8599 130.963 35.8681C130.995 35.8762 131.024 35.8843 131.057 35.8884C131.293 35.9371 131.542 35.9695 131.799 35.9898C131.901 35.998 132.004 36.0061 132.11 36.0101C132.261 36.0183 132.416 36.0223 132.575 36.0223H132.587C132.746 36.0223 132.914 36.0183 133.081 36.0101C133.383 35.998 133.693 35.9736 134.016 35.9452C134.146 35.9371 134.281 35.9208 134.411 35.9087C134.546 35.8965 134.681 35.8802 134.82 35.864C135.085 35.8315 135.354 35.7991 135.632 35.7625C135.787 36.3836 135.909 36.9884 135.999 37.5689C136.73 42.2858 135.338 45.7647 131.134 47.6117Z" fill="#7AB92D"/>
<path d="M127.914 39.834C126.282 42.2696 123.066 46.8323 123.066 46.8323V47.9526H117.099L109.344 44.0963C106.488 42.0666 109.344 38.4133 111.793 39.6311C111.793 39.6311 116.813 42.3548 117.099 42.0666C117.429 41.7338 117.164 39.079 116.825 37.2645C116.634 36.2334 116.421 35.4743 116.283 35.5717C115.817 35.2957 115.311 35.0197 114.773 34.7436C111.214 32.917 106.398 31.1755 104.447 30.2946C104.239 30.2013 104.067 30.0754 103.933 29.9293C104.802 28.5329 105.255 27.0188 105.312 25.5412C105.684 25.3707 106.084 25.3139 106.488 25.4235C108.373 25.939 112.867 27.8875 114.242 28.4923C114.299 28.5167 114.356 28.541 114.405 28.5654C114.544 28.6222 114.63 28.6587 114.646 28.6669C114.634 28.6506 114.593 28.5938 114.536 28.5045C114.536 28.4964 114.528 28.4923 114.519 28.4842C114.487 28.4355 114.446 28.3746 114.405 28.3137C114.352 28.2406 114.299 28.1635 114.242 28.0783C113.422 26.8808 111.601 24.1326 110.977 22.5819C110.814 22.172 110.863 21.7782 111.059 21.425C111.255 21.0678 111.593 20.7512 112.001 20.5036C113.197 19.7688 114.981 19.5862 115.466 20.5523C116.283 22.176 118.731 26.2353 118.731 26.2353C119.662 25.3098 119.752 24.0027 120.825 22.927C122.404 21.7701 125.261 22.9879 124.853 25.9349C123.494 28.7724 122.388 31.4353 121.792 33.7451C121.862 35.4012 122.102 36.9154 122.609 38.2103L124.649 36.1806C125.437 35.3972 127.237 36.1279 127.988 37.3944C128.404 38.0966 128.498 38.9653 127.914 39.834Z" fill="#5BA006"/>
<path d="M90.1627 47.9527H73.0215L72.2665 47.9608L65.3937 48.0176C63.2428 45.034 62.4837 42.0586 63.7163 39.0953C60.5492 35.6124 59.7575 31.7276 60.7737 27.5384C52.55 26.9701 49.9543 22.5576 53.6356 13.8545C50.0278 6.67759 53.7785 0.629219 59.1167 0.0446777C59.0106 0.243584 58.9086 0.44249 58.8147 0.641397C58.7616 0.742879 58.7127 0.848421 58.6637 0.953964C58.4678 1.37207 58.2964 1.78206 58.1495 2.18799C58.1046 2.30165 58.0638 2.41937 58.027 2.53304C57.9658 2.70759 57.9127 2.88214 57.8638 3.05669C57.8352 3.14193 57.8107 3.23124 57.7903 3.31648C57.7577 3.44232 57.7291 3.56004 57.7005 3.67776C57.672 3.8036 57.6475 3.92538 57.623 4.05122C57.5944 4.19329 57.5699 4.33537 57.5454 4.47339C57.472 4.93615 57.4393 5.39079 57.4393 5.83326C57.4393 5.99157 57.4434 6.14582 57.4557 6.30414V6.32037C57.4638 6.46245 57.4761 6.60858 57.4924 6.75066C57.5128 6.92521 57.5414 7.09976 57.574 7.27431C57.574 7.30679 57.5863 7.3352 57.5903 7.36768C57.5985 7.40421 57.6067 7.43668 57.6148 7.47322C57.6311 7.55034 57.6515 7.63153 57.672 7.70866C57.6883 7.77361 57.7046 7.83856 57.725 7.9035C57.7209 7.90756 57.725 7.90756 57.7291 7.91162C57.7495 8.00499 57.7781 8.09835 57.8107 8.18766C57.8434 8.28102 57.876 8.37844 57.9127 8.47181C57.9291 8.51646 57.9454 8.56517 57.9658 8.60577C58.0474 8.81685 58.1413 9.02387 58.2515 9.2309C58.2719 9.27149 58.2923 9.31614 58.3209 9.35674C58.3698 9.4501 58.4188 9.53941 58.476 9.62871C58.529 9.71802 58.5821 9.80732 58.6433 9.89663C58.6882 9.96969 58.7372 10.0428 58.7861 10.1118C58.8596 10.2173 58.9371 10.3229 59.0188 10.4243C59.0963 10.5258 59.1739 10.6232 59.2596 10.7207C59.3289 10.8059 59.4024 10.8871 59.4799 10.9723C59.5697 11.0738 59.6677 11.1753 59.7656 11.2727C59.9411 11.4473 60.1207 11.6178 60.3166 11.7842C60.4227 11.8776 60.5288 11.9669 60.639 12.0521C60.6635 12.0724 60.6921 12.0927 60.7166 12.1171C59.4473 13.6393 60.1901 15.0966 60.5737 15.4782C60.6635 15.5675 60.9451 15.7339 61.3573 15.9612C61.4757 16.0262 61.6022 16.0952 61.7369 16.1642C61.745 16.1683 61.7573 16.1764 61.7695 16.1804C61.896 16.2494 62.0266 16.3185 62.1654 16.3915C62.2552 16.4362 62.3491 16.4849 62.447 16.5377C62.5286 16.5783 62.6103 16.6229 62.696 16.6676C62.9816 16.8178 63.2837 16.9761 63.5897 17.1344C63.602 17.1384 63.6142 17.1425 63.6224 17.1506C64.9366 17.8448 66.3446 18.5998 67.1037 19.1316C67.1037 19.1316 65.2182 19.7567 63.9285 20.463C63.8428 20.5117 63.7571 20.5564 63.6755 20.6051C63.5898 20.6538 63.5081 20.7066 63.4306 20.7553C62.6143 21.5671 62.2062 22.7849 63.0225 24.0027C63.8387 25.2205 65.4712 25.2205 66.6956 24.8146C67.0874 24.6847 67.7649 24.433 68.5117 24.1489C68.5852 24.2991 68.6627 24.4493 68.7444 24.5995C68.8545 24.8105 68.9729 25.0176 69.0953 25.2286C69.0627 25.3423 69.0341 25.456 69.0096 25.5696C68.9933 25.6305 68.9811 25.6873 68.9688 25.7482C68.9403 25.8741 68.9158 26.004 68.8913 26.1298C68.8668 26.2759 68.8423 26.4221 68.8219 26.5682C68.8015 26.7184 68.7852 26.8645 68.7729 27.0066C68.7607 27.1406 68.7525 27.2705 68.7444 27.3963C68.7403 27.4207 68.7403 27.445 68.7403 27.4653C68.7362 27.5952 68.7321 27.7251 68.7321 27.851C68.7321 27.924 68.7321 27.993 68.7362 28.0661C68.7362 28.1148 68.7362 28.1595 68.7403 28.2041C68.7403 28.2163 68.7403 28.2244 68.7444 28.2366V28.2853C68.7484 28.3584 68.7566 28.4314 68.7607 28.5045C68.7648 28.6506 68.7811 28.7927 68.8015 28.9307C68.3077 29.3407 67.9199 29.9334 67.9199 30.7858C67.9199 32.6937 69.5524 33.3391 70.536 33.3391H70.7768C70.8707 33.4447 70.9686 33.5462 71.0707 33.6477C71.1278 33.7126 71.1849 33.7694 71.2462 33.8263C71.34 33.9156 71.438 34.0049 71.5359 34.0901C71.6257 34.1673 71.7155 34.2444 71.8094 34.3174C71.9359 34.4189 72.0665 34.5163 72.2012 34.6097C72.2583 34.6544 72.3195 34.695 72.3807 34.7315C72.5113 34.8249 72.646 34.9101 72.7848 34.9872C72.8501 35.0278 72.9235 35.0684 72.9929 35.109C73.0868 35.1618 73.1807 35.2105 73.2786 35.2592C73.5439 35.3932 73.8214 35.5149 74.103 35.6245C74.1765 35.653 74.2499 35.6814 74.3275 35.7057C74.405 35.7341 74.4826 35.7585 74.5601 35.7829C74.6581 35.8153 74.7601 35.8437 74.8621 35.8722C75.0988 35.9412 75.3396 36.0021 75.5886 36.0467C75.6172 36.0508 75.6498 36.0589 75.6825 36.0629C75.711 36.0711 75.7437 36.0751 75.7722 36.0792C75.8457 36.0954 75.9192 36.1076 75.9926 36.1157C76.0457 36.1238 76.0987 36.132 76.1559 36.136C76.2783 36.1523 76.4007 36.1644 76.5273 36.1766C76.6334 36.1888 76.7354 36.1969 76.8374 36.201C76.9966 36.2091 77.1599 36.2131 77.319 36.2131C78.2495 36.2131 79.2046 36.0711 80.1636 35.7747C80.3677 35.929 80.5677 36.0751 80.7718 36.2172C80.9758 36.3633 81.1799 36.5014 81.3839 36.6313C81.588 36.7652 81.7921 36.8951 82.0002 37.0169C82.1839 37.1305 82.3716 37.2361 82.5593 37.3376C82.5797 37.3498 82.6001 37.3579 82.6206 37.37C82.8083 37.4756 82.9879 37.569 83.1756 37.6623C83.3429 37.7476 83.5103 37.8247 83.6735 37.8978C83.7674 37.9424 83.8612 37.9871 83.9592 38.0277C83.9755 38.0358 83.9918 38.0439 84.0082 38.048C84.1755 38.1251 84.3388 38.1941 84.502 38.255C84.5061 38.255 84.5102 38.259 84.5142 38.259C84.6612 38.3199 84.804 38.3768 84.9509 38.4255C85.0121 38.4498 85.0775 38.4742 85.1387 38.4945C85.3101 38.5554 85.4897 38.6203 85.6651 38.669C85.6856 38.6771 85.71 38.6853 85.7304 38.6893H85.7345C85.9304 39.0709 86.1141 39.4525 86.2855 39.834C86.2855 39.834 80.5718 39.0222 79.3474 39.2373C78.123 39.4525 77.3068 41.0518 77.3068 41.9611C77.3068 44.0841 78.5312 44.7052 79.3474 44.7052C80.1636 44.7052 89.1424 45.923 89.1424 45.923L90.1627 47.9527Z" fill="#A1D51C"/>
<path d="M102.496 47.9527H95.5458L94.0399 43.0815C94.0643 42.9759 94.0847 42.8704 94.1092 42.7649C94.3011 42.8745 94.4929 42.9841 94.6929 43.0896C94.8969 43.1952 95.101 43.2966 95.3132 43.3981C95.5173 43.4955 95.7254 43.5889 95.9376 43.6782C95.9825 43.6985 96.0274 43.7188 96.0723 43.735C96.105 43.7513 96.1376 43.7635 96.1703 43.7756C96.3131 43.8365 96.46 43.8934 96.607 43.9461C96.6314 43.9583 96.6518 43.9664 96.6763 43.9745C96.6763 43.9745 96.6845 43.9827 96.6927 43.9745C96.7784 44.0111 96.8641 44.0435 96.9539 44.072C97.1171 44.1329 97.2804 44.1897 97.4518 44.2425C97.5048 44.2627 97.5538 44.279 97.6069 44.2952C97.7579 44.3439 97.9089 44.3926 98.0599 44.4332C98.1048 44.4495 98.1456 44.4617 98.1905 44.4698C98.2966 44.5022 98.4027 44.5307 98.5088 44.5631C98.7741 44.6362 99.0394 44.7052 99.3128 44.7702C99.3332 44.7742 99.3577 44.7823 99.3822 44.7864C99.8964 44.9041 100.427 45.0137 100.974 45.1071L102.492 47.9486L102.496 47.9527Z" fill="#A1D51C"/>
<path d="M100.978 45.1111C100.431 45.0178 99.9005 44.9082 99.3863 44.7905C99.3618 44.7823 99.3373 44.7783 99.3169 44.7742C99.0435 44.7093 98.7782 44.6403 98.5129 44.5672C98.4068 44.5347 98.3007 44.5063 98.1946 44.4738C98.1497 44.4657 98.1089 44.4535 98.064 44.4373C97.913 44.3967 97.7619 44.348 97.6109 44.2993C97.5579 44.283 97.5089 44.2668 97.4559 44.2465C97.2844 44.1937 97.1212 44.1369 96.9579 44.076C96.8682 44.0476 96.7824 44.0151 96.6967 43.9786C96.6886 43.9826 96.6845 43.9786 96.6804 43.9786C96.6559 43.9705 96.6355 43.9623 96.611 43.9502C96.4641 43.8974 96.3172 43.8406 96.1743 43.7797C96.1417 43.7675 96.1091 43.7553 96.0764 43.7391C96.0315 43.7229 95.9866 43.7026 95.9417 43.6823C95.7295 43.593 95.5214 43.4996 95.3173 43.4022C95.1051 43.3007 94.901 43.1992 94.6969 43.0937C94.497 42.9881 94.3051 42.8785 94.1133 42.7689C95.2683 37.3741 96.4927 30.8548 96.4927 28.0661C96.4927 27.2542 96.4927 25.6305 94.8602 25.2246C93.2277 24.8186 92.4114 25.2246 91.5952 26.8483C90.779 28.472 90.6402 31.8291 90.0362 35.2308L86.2896 29.6898C86.763 27.2542 88.3302 23.1949 88.3302 22.3831C88.3302 21.5712 88.3302 20.7593 87.1058 19.9475C85.8815 19.1356 84.6571 19.1356 83.8409 19.9475C83.0246 20.7593 82.2981 23.1097 81.8002 24.8186C79.4086 21.9406 76.9558 19.6633 74.454 17.9178C74.454 17.9178 74.454 10.611 74.3357 9.79919C74.2132 8.98733 73.6378 8.17546 71.5971 8.17546C69.5565 8.17546 68.7403 9.39326 68.7403 10.2051V13.8585C67.5526 12.9208 65.4753 12.2348 64.659 11.8288C63.4347 11.4229 62.2103 10.611 60.9859 11.8288C60.888 11.9263 60.7982 12.0237 60.7207 12.1211C60.6962 12.0968 60.6676 12.0765 60.6431 12.0562C60.5329 11.9709 60.4268 11.8816 60.3207 11.7883C60.1248 11.6218 59.9452 11.4513 59.7697 11.2768C59.6718 11.1794 59.5738 11.0779 59.484 10.9764C59.4065 10.8911 59.333 10.81 59.2637 10.7247C59.1779 10.6273 59.1004 10.5299 59.0229 10.4284C58.9412 10.3269 58.8637 10.2214 58.7902 10.1158C58.7413 10.0468 58.6923 9.97374 58.6474 9.90067C58.5862 9.81137 58.5331 9.72206 58.4801 9.63276C58.427 9.54345 58.3739 9.45009 58.325 9.36078C58.2964 9.32019 58.276 9.27554 58.2556 9.23494C58.1495 9.02792 58.0515 8.82089 57.9699 8.60981C57.9495 8.56922 57.9332 8.5205 57.9168 8.47585C57.8801 8.38249 57.8475 8.28506 57.8148 8.1917C57.7822 8.1024 57.7536 8.00903 57.7332 7.91567C57.7291 7.91161 57.725 7.91161 57.7291 7.90755C57.7087 7.8426 57.6924 7.77765 57.6761 7.7127C57.6556 7.63558 57.6352 7.55439 57.6189 7.47726C57.6026 7.41231 57.5903 7.34331 57.5781 7.27836C57.5455 7.10381 57.5169 6.92926 57.4965 6.7547C57.4802 6.61263 57.4679 6.46649 57.4597 6.32442V6.30818C57.4475 6.14987 57.4434 5.99561 57.4434 5.8373C57.4434 5.39483 57.4761 4.94019 57.5495 4.47743C57.574 4.33941 57.5985 4.19734 57.6271 4.05526C57.6516 3.92942 57.6761 3.80764 57.7046 3.68181C57.7332 3.56409 57.7618 3.44637 57.7944 3.32459C57.8148 3.23528 57.8393 3.14598 57.8679 3.06073C57.9168 2.88618 57.9699 2.71163 58.0311 2.53708C58.0679 2.42342 58.1087 2.3057 58.1536 2.19204C58.3005 1.78611 58.4719 1.37612 58.6678 0.958008C58.7168 0.852466 58.7657 0.746924 58.8188 0.645441C58.9127 0.446535 59.0147 0.247629 59.1208 0.0487224C61.6308 -0.227311 64.4958 0.706331 67.1078 3.30429C74.7479 2.01749 80.2657 4.15675 82.6165 11.4229C88.5302 10.7044 92.9787 12.2429 95.2683 17.1059C96.9865 17.0288 98.4966 17.248 99.7862 17.6945H99.7903C103.533 18.9895 105.443 22.1801 105.316 25.5453C105.259 27.0228 104.806 28.537 103.937 29.9334C103.908 29.9902 103.872 30.043 103.839 30.0957C106.704 36.481 105.998 41.5755 100.982 45.1152L100.978 45.1111Z" fill="#C4F236"/>
<path d="M82.2043 33.3391C83.6368 35.1374 84.8285 36.9235 85.7304 38.6893C85.71 38.6853 85.6855 38.6771 85.6651 38.669C85.4896 38.6162 85.3142 38.5554 85.1387 38.4945C85.0774 38.4742 85.0121 38.4498 84.9509 38.4255C84.8856 38.4052 84.8244 38.3808 84.7632 38.3524C84.6816 38.324 84.5959 38.2915 84.5142 38.259C84.5142 38.259 84.5061 38.255 84.502 38.255C84.3387 38.19 84.1714 38.121 84.0082 38.0479C83.9918 38.0439 83.9755 38.0358 83.9592 38.0276C83.8612 37.9871 83.7674 37.9424 83.6735 37.8977C83.5103 37.8247 83.3429 37.7476 83.1756 37.6623C82.9919 37.5689 82.8042 37.4715 82.6205 37.37C82.6001 37.3579 82.5797 37.3497 82.5593 37.3376C82.3716 37.2361 82.1838 37.1265 82.0002 37.0169C81.7921 36.8951 81.588 36.7652 81.3839 36.6312C81.1799 36.5013 80.9758 36.3633 80.7717 36.2172C80.5677 36.0751 80.3677 35.929 80.1636 35.7747C79.2045 36.0711 78.2495 36.2131 77.319 36.2131C77.1598 36.2131 76.9966 36.2131 76.8374 36.201C76.7354 36.1969 76.6334 36.1888 76.5273 36.1766C76.4007 36.1644 76.2783 36.1522 76.1559 36.136C76.0987 36.1319 76.0457 36.1238 75.9926 36.1157C75.9192 36.1076 75.8457 36.0954 75.7722 36.0792C75.7437 36.0751 75.711 36.0711 75.6824 36.0629C75.6498 36.0629 75.6171 36.0508 75.5886 36.0467C75.3396 36.0021 75.0988 35.9412 74.8621 35.8722C74.7601 35.8437 74.6581 35.8153 74.5601 35.7828C74.4826 35.7585 74.405 35.7341 74.3275 35.7057C74.2499 35.6814 74.1765 35.653 74.103 35.6245C73.8214 35.5149 73.5439 35.3932 73.2786 35.2592C73.1806 35.2105 73.0868 35.1618 72.9929 35.109C72.9235 35.0684 72.8501 35.0278 72.7848 34.9872C72.646 34.9101 72.5113 34.8248 72.3807 34.7315C72.3195 34.695 72.2583 34.6544 72.2011 34.6097C72.0665 34.5163 71.9359 34.4189 71.8093 34.3174C71.7155 34.2444 71.6257 34.1672 71.5359 34.0901C71.438 34.0049 71.34 33.9156 71.2461 33.8263C71.1849 33.7694 71.1278 33.7126 71.0706 33.6477C70.9686 33.5462 70.8707 33.4447 70.7768 33.3391H82.2043Z" fill="#C4F236"/>
<path d="M77.3068 28.062C77.3068 28.062 71.1849 28.062 70.536 28.1594C70.1769 28.2122 69.4137 28.4233 68.8015 28.9307C68.7811 28.7927 68.7648 28.6506 68.7607 28.5045C68.7566 28.4314 68.7484 28.3583 68.7444 28.2853V28.2366C68.7403 28.1797 68.7362 28.1229 68.7362 28.0661C68.7321 27.993 68.7321 27.924 68.7321 27.8509C68.7321 27.7251 68.7362 27.5952 68.7403 27.4653C68.7403 27.445 68.7403 27.4206 68.7444 27.3963C68.7525 27.2704 68.7607 27.1406 68.7729 27.0066C68.7852 26.8645 68.8015 26.7184 68.8219 26.5722C68.8423 26.4221 68.8668 26.2759 68.8913 26.1298C68.9158 26.0039 68.9403 25.874 68.9688 25.7482C68.9811 25.6873 68.9933 25.6305 69.0096 25.5696C69.0341 25.4559 69.0627 25.3423 69.0953 25.2286C68.9729 25.0175 68.8545 24.8105 68.7444 24.5994C68.6627 24.4492 68.5852 24.299 68.5117 24.1488C70.1075 23.5399 72.0012 22.7849 72.0012 22.7849C74.054 23.9946 75.8212 25.7563 77.3068 28.062Z" fill="#C4F236"/>
<path d="M94.1092 42.7649C95.2642 37.37 96.4886 30.8508 96.4886 28.062C96.4886 27.2502 96.4886 25.6265 94.8561 25.2205C93.2236 24.8146 92.4074 25.2205 91.5911 26.8442C90.7749 28.468 90.6361 31.825 90.0321 35.2267L86.2855 29.6858C86.7589 27.2502 88.3261 23.1909 88.3261 22.379C88.3261 21.5671 88.3261 20.7553 87.1017 19.9434C85.8774 19.1316 84.653 19.1316 83.8368 19.9434C83.0205 20.7553 82.2941 23.1056 81.7961 24.8146C79.4045 21.9365 76.9517 19.6593 74.4499 17.9138C74.4499 17.9138 74.4499 10.607 74.3316 9.79514C74.2091 8.98328 73.6337 8.17142 71.5931 8.17142C69.5524 8.17142 68.7362 9.38921 68.7362 10.2011V13.8545C67.5485 12.9168 65.4712 12.2307 64.6549 11.8248C63.4306 11.4189 62.2062 10.607 60.9818 11.8248C60.8839 11.9222 60.7941 12.0196 60.7166 12.1171C59.4473 13.6393 60.1901 15.0966 60.5737 15.4782C60.6635 15.5675 60.9451 15.7339 61.3573 15.9612C61.4757 16.0221 61.6022 16.0911 61.7369 16.1642C61.745 16.1683 61.7573 16.1764 61.7695 16.1804C61.896 16.2494 62.0266 16.3185 62.1654 16.3915C62.2552 16.4362 62.349 16.4849 62.447 16.5377C62.5286 16.5783 62.6102 16.6229 62.696 16.6676C62.9816 16.8178 63.2837 16.972 63.5897 17.1344C63.602 17.1384 63.6142 17.1425 63.6224 17.1506C65.0019 17.8651 66.4915 18.6566 67.2669 19.2046C67.2669 19.2046 67.0425 19.2696 66.6956 19.3792C66.6629 19.3873 66.6303 19.3995 66.5976 19.4076C66.5119 19.436 66.4262 19.4644 66.3323 19.4969C66.2181 19.5334 66.0915 19.5781 65.9569 19.6227C65.6834 19.7202 65.3814 19.8298 65.0835 19.9475C64.9855 19.984 64.8876 20.0246 64.7937 20.0652C64.4917 20.191 64.1979 20.325 63.9285 20.463C63.8428 20.5117 63.7571 20.5564 63.6755 20.6051C63.5897 20.6538 63.5081 20.7066 63.4306 20.7553C62.6143 21.5671 62.2062 22.7849 63.0225 24.0027C63.8387 25.2205 65.4712 25.2205 66.6956 24.8146C67.0874 24.6847 67.7648 24.433 68.5117 24.1489C70.1075 23.54 72.0012 22.7849 72.0012 22.7849C74.054 23.9946 75.8212 25.7564 77.3068 28.062C77.3068 28.062 71.1849 28.062 70.536 28.1595C70.1769 28.2122 69.4137 28.4233 68.8015 28.9307C68.3077 29.3407 67.9199 29.9334 67.9199 30.7858C67.9199 32.6937 69.5524 33.3391 70.536 33.3391H82.2043C83.6368 35.1374 84.8285 36.9235 85.7305 38.6893H85.7345C85.9304 39.0709 86.1141 39.4525 86.2855 39.834C86.2855 39.834 80.5718 39.0222 79.3474 39.2373C78.123 39.4525 77.3068 41.0518 77.3068 41.9611C77.3068 44.0841 78.5312 44.7052 79.3474 44.7052C80.1636 44.7052 89.1424 45.923 89.1424 45.923L90.1627 47.9527H95.5458L94.0398 43.0815C94.0643 42.976 94.0847 42.8704 94.1092 42.7649Z" fill="#7AB92D"/>
<path d="M119.712 81.2634C119.654 81.3043 119.597 81.3452 119.539 81.382C119.597 81.3411 119.654 81.3043 119.712 81.2634Z" fill="#A1D51C"/>
<path d="M120.038 76.0674C120.038 76.0674 120.033 76.0802 120.029 76.0845C120.029 76.0802 120.033 76.0717 120.033 76.0674H120.038Z" fill="#A1D51C"/>
<path d="M180.493 47.9526C179.889 48.663 179.301 49.4099 178.726 50.1853C177.807 49.3125 176.873 48.5697 175.926 47.9526H180.493Z" fill="#84D2F4"/>
<path d="M144.81 90.3846C144.431 90.8027 143.974 91.1681 143.423 91.3873C142.933 91.5821 142.088 91.6836 141.092 91.7161C141.003 91.7242 140.905 91.7242 140.811 91.7282C140.848 91.8663 140.884 92.0002 140.917 92.1382C141.399 94.0989 141.411 96.1854 140.99 98.1541C140.966 98.28 140.937 98.4058 140.909 98.5316C140.905 98.5438 140.901 98.5601 140.897 98.5722C141.064 98.5682 141.231 98.5641 141.399 98.5601C142.774 98.5235 144.113 98.4708 145.406 98.3977C146.267 98.353 147.104 98.2962 147.92 98.2313C147.79 98.0121 147.667 97.7929 147.545 97.5696C146.337 95.341 145.406 92.9298 144.81 90.3846Z" fill="#57B7EB"/>
<path d="M109.622 81.2638C109.079 81.2151 108.532 81.1664 107.99 81.1177C102.545 80.6428 96.9375 80.249 91.183 79.9324C89.7015 79.8512 88.2119 79.7741 86.71 79.701C86.4447 79.6848 86.1753 79.6726 85.91 79.6604C85.7141 79.6523 85.5223 79.6482 85.3264 79.6482H85.1101C83.5552 79.6929 82.1022 79.8999 80.7473 80.2449C79.4045 80.59 78.1638 81.073 77.0293 81.6698C75.4743 82.4897 74.1193 83.5249 72.9725 84.7102C72.9072 84.7751 72.846 84.8441 72.7848 84.9091C63.7897 75.0896 60.0799 62.5342 60.6104 48.0587L65.3937 48.0181L72.2665 47.9612C70.2014 65.8709 81.9186 77.4197 109.622 81.2638Z" fill="#57B7EB"/>
<path d="M72.9725 84.7097C73.0378 84.7787 73.1031 84.8477 73.1725 84.9167C73.1031 84.9817 73.0378 85.0466 72.9725 85.1156C72.9072 85.0466 72.846 84.9776 72.7848 84.9086C72.846 84.8436 72.9072 84.7746 72.9725 84.7097Z" fill="#84D2F4"/>
<path d="M127.343 59.6069C124.865 60.5568 123.057 62.5256 121.992 65.4402C121.956 65.4239 121.915 65.4117 121.882 65.3996C121.862 65.3915 121.841 65.3833 121.825 65.3752C121.817 65.3712 121.809 65.3712 121.805 65.3671C121.784 65.359 121.76 65.3549 121.739 65.3468C121.678 65.3265 121.621 65.3103 121.527 65.2778C121.507 65.2697 121.49 65.2656 121.47 65.2616C121.441 65.2494 121.409 65.2413 121.376 65.2291C121.351 65.225 121.327 65.2169 121.303 65.2088C121.209 65.1804 121.107 65.152 121.005 65.1276C120.903 65.1032 120.796 65.0789 120.686 65.0545C120.674 65.0505 120.666 65.0505 120.654 65.0464C120.56 65.0261 120.466 65.0099 120.364 64.9896H120.352C120.258 64.9733 120.164 64.9571 120.066 64.9449C120.041 64.9409 120.021 64.9368 119.997 64.9368C119.915 64.9246 119.833 64.9165 119.752 64.9084C119.711 64.9084 119.67 64.9003 119.625 64.8962C119.535 64.8881 119.446 64.884 119.356 64.884C119.352 64.884 119.348 64.884 119.348 64.884H119.27C119.025 64.8759 118.776 64.884 118.523 64.9084C118.45 64.9165 118.376 64.9246 118.303 64.9328C118.152 64.9531 118.001 64.9815 117.85 65.018C117.817 65.0221 117.784 65.0302 117.752 65.0424C117.678 65.0586 117.609 65.0748 117.54 65.0992C117.487 65.1154 117.434 65.1317 117.38 65.152C117.34 65.1641 117.299 65.1763 117.262 65.1925C117.197 65.2169 117.136 65.2413 117.07 65.2697C117.017 65.29 116.968 65.3143 116.915 65.3387C116.821 65.3874 116.723 65.4361 116.629 65.4889C116.54 65.5376 116.45 65.5944 116.364 65.6553C116.254 65.7284 116.148 65.8055 116.042 65.8948C115.993 65.9313 115.948 65.9719 115.899 66.0166C115.866 66.045 115.834 66.0775 115.797 66.11C115.76 66.1465 115.719 66.1871 115.679 66.2277C115.654 66.252 115.63 66.2804 115.601 66.3089C115.552 66.3616 115.507 66.4144 115.462 66.4672C115.413 66.524 115.368 66.5808 115.324 66.6417C115.295 66.6783 115.266 66.7188 115.238 66.7554C115.205 66.796 115.173 66.8406 115.148 66.8853C115.087 66.9665 115.034 67.0517 114.981 67.141C114.948 67.1897 114.919 67.2425 114.891 67.2953C114.781 67.4901 114.675 67.7012 114.577 67.9285C114.577 67.9285 114.573 67.9448 114.568 67.9488C114.56 67.9691 114.548 67.9975 114.536 68.03C114.528 68.0462 114.519 68.0665 114.511 68.0868C114.511 68.099 114.503 68.1112 114.499 68.1193C114.401 68.3547 114.32 68.5983 114.242 68.8622C114.071 69.4467 113.985 69.9825 113.964 70.4778C113.969 70.563 113.973 70.6483 113.981 70.7335C113.989 70.835 114.001 70.9324 114.018 71.0298C114.03 71.1191 114.046 71.2084 114.066 71.2937C114.071 71.3221 114.079 71.3505 114.083 71.3749C114.095 71.4236 114.107 71.4764 114.12 71.521C114.12 71.5251 114.124 71.5291 114.124 71.5332C114.136 71.5819 114.152 71.6266 114.164 71.6753C114.181 71.7321 114.197 71.7849 114.217 71.8376C114.222 71.8458 114.222 71.8498 114.226 71.8579C114.246 71.9188 114.271 71.9757 114.295 72.0325C114.311 72.0812 114.332 72.1259 114.356 72.1746C114.385 72.2395 114.413 72.3004 114.45 72.3613C114.479 72.4262 114.511 72.4871 114.548 72.548C114.646 72.7185 114.752 72.8768 114.87 73.027C114.891 73.0595 114.915 73.096 114.944 73.1285C114.952 73.1366 114.96 73.1488 114.973 73.1569C114.973 73.1569 114.974 73.1596 114.977 73.165C115.026 73.2259 115.075 73.2828 115.124 73.3396C115.254 73.4817 115.389 73.6197 115.532 73.7455C115.54 73.7536 115.544 73.7618 115.552 73.7658C115.56 73.7739 115.572 73.7861 115.581 73.7983C115.642 73.8673 115.703 73.9282 115.768 73.9931C115.797 74.0175 115.821 74.0418 115.846 74.0662C115.87 74.0865 115.891 74.1109 115.915 74.1311C115.948 74.1596 115.985 74.192 116.017 74.2205C116.189 74.3706 116.368 74.5087 116.552 74.6345C116.601 74.671 116.654 74.7035 116.707 74.74C116.727 74.7563 116.752 74.7685 116.776 74.7847C116.813 74.8091 116.854 74.8334 116.891 74.8578C116.985 74.9146 117.078 74.9714 117.176 75.0242C117.217 75.0486 117.258 75.0688 117.299 75.0891C117.331 75.1094 117.364 75.1257 117.397 75.1419C117.47 75.1825 117.544 75.215 117.613 75.2515C117.638 75.2637 117.658 75.2718 117.682 75.284C117.972 75.422 118.262 75.5397 118.535 75.6412C118.56 75.6493 118.584 75.6574 118.605 75.6656C118.699 75.698 118.788 75.7305 118.874 75.7589C118.891 75.7671 118.911 75.7711 118.927 75.7752C118.952 75.7833 118.976 75.7914 119.005 75.7995C119.058 75.8158 119.115 75.832 119.168 75.8523C119.172 75.8523 119.176 75.8523 119.18 75.8564C119.188 75.8564 119.193 75.8604 119.201 75.8604C119.209 75.8604 119.221 75.8645 119.229 75.8685C119.25 75.8685 119.27 75.8807 119.29 75.8848C119.319 75.8929 119.348 75.901 119.372 75.9091C119.384 75.9132 119.397 75.9172 119.409 75.9213C119.437 75.9213 119.462 75.9335 119.486 75.9416C119.535 75.9538 119.58 75.966 119.625 75.9781C119.662 75.9863 119.695 75.9944 119.731 76.0025C119.76 76.0106 119.788 76.0147 119.817 76.0228C119.829 76.0228 119.837 76.0228 119.85 76.0309C119.915 76.0471 119.972 76.0593 120.029 76.0715H120.033C120.033 76.0715 120.029 76.0837 120.029 76.0877C120.029 76.0959 120.025 76.108 120.017 76.1202V76.1283C120.017 76.1283 120.013 76.1405 120.009 76.1446C119.903 76.445 119.76 76.8996 119.654 77.4395C119.633 77.541 119.617 77.6465 119.601 77.7561C119.597 77.7683 119.592 77.7845 119.592 77.8008C119.58 77.886 119.568 77.9713 119.56 78.0606C119.552 78.1133 119.548 78.1661 119.544 78.2189C119.531 78.3122 119.527 78.4097 119.523 78.5071C119.515 78.6695 119.515 78.8359 119.519 78.9983V79.0145C119.511 79.2784 119.519 79.5503 119.548 79.8223C119.629 80.5652 119.682 81.0076 119.711 81.2674C119.654 81.308 119.597 81.3445 119.539 81.3851C119.429 81.4623 119.327 81.5394 119.233 81.6165C118.993 81.8073 118.797 81.994 118.646 82.1808C117.078 82.0022 115.495 81.8357 113.895 81.6733C113.83 81.6652 113.76 81.6612 113.695 81.6531C113.687 81.6287 113.679 81.5962 113.667 81.5678C113.564 81.2146 113.528 80.7032 113.528 80.143V80.1065C113.532 78.5274 113.834 76.5627 113.834 76.5627C113.813 76.5546 113.793 76.5505 113.777 76.5424C109.957 75.3205 108.304 72.6901 108.381 70.2383V70.2261C108.492 67.0111 111.577 64.1047 116.67 65.0586C116.752 65.0748 116.838 65.0911 116.919 65.1073C116.948 65.0342 116.976 64.9652 117.005 64.8922C118.895 60.2483 122.302 58.4135 127.343 59.611V59.6069Z" fill="#57B7EB"/>
<path d="M156.687 59.5379C156.691 59.3309 156.695 59.1279 156.707 58.925C151.324 58.7423 146.916 61.0764 143.402 65.7324C143.582 65.8217 143.757 65.9232 143.933 66.0288L143.974 66.0531C144.064 66.1059 144.153 66.1627 144.239 66.2195C144.423 66.3413 144.594 66.4753 144.761 66.6255C144.843 66.6985 144.921 66.7716 144.994 66.8487C145.076 66.9259 145.149 67.007 145.227 67.0923C145.447 67.344 145.655 67.62 145.847 67.9042C145.998 68.1315 146.141 68.3669 146.272 68.6024C146.345 68.7323 146.418 68.8662 146.484 69.0002C146.553 69.1301 146.614 69.26 146.671 69.3858C146.733 69.5198 146.794 69.6537 146.851 69.7877C146.908 69.9176 146.961 70.0434 147.01 70.1693C147.059 70.291 147.108 70.4128 147.153 70.5305C147.288 70.2626 147.426 70.0028 147.569 69.739C147.704 69.4913 147.843 69.2437 147.99 69.0002C148.357 68.3588 148.757 67.7377 149.177 67.1329C149.292 66.9665 149.41 66.8 149.524 66.6377C149.569 66.5768 149.614 66.5159 149.663 66.455C149.79 66.2804 149.916 66.1099 150.047 65.9395C150.308 65.6066 150.573 65.2778 150.851 64.953C150.961 64.815 151.079 64.6811 151.198 64.5471C151.381 64.336 151.569 64.1249 151.765 63.922C151.883 63.7921 152.006 63.6622 152.132 63.5363C152.206 63.4552 152.283 63.378 152.361 63.3009C152.512 63.1466 152.663 63.0005 152.814 62.8584C152.871 62.7975 152.928 62.7448 152.985 62.692C153.124 62.558 153.267 62.4241 153.41 62.3023C153.508 62.2049 153.605 62.1156 153.703 62.0385C153.81 61.937 153.92 61.8436 154.03 61.7502C154.136 61.6528 154.246 61.5635 154.352 61.4783C154.495 61.3565 154.642 61.2388 154.789 61.1211C154.863 61.0602 154.94 60.9993 155.018 60.9424C155.185 60.8085 155.352 60.6786 155.524 60.5527C155.564 60.5203 155.605 60.4919 155.646 60.4634C155.866 60.3011 156.083 60.1428 156.307 59.9885H156.311C156.454 59.883 156.597 59.7855 156.744 59.6881L156.687 59.5379Z" fill="#57B7EB"/>
<path d="M147.01 70.1693C146.961 70.0434 146.908 69.9176 146.851 69.7877C146.794 69.6537 146.733 69.5198 146.671 69.3858C146.61 69.2559 146.549 69.1301 146.484 69.0002C146.418 68.8662 146.345 68.7323 146.272 68.6024C146.141 68.3669 145.998 68.1315 145.847 67.9042C145.655 67.62 145.447 67.344 145.227 67.0923C145.149 67.007 145.076 66.9259 144.994 66.8487C144.921 66.7716 144.843 66.6985 144.761 66.6255C144.594 66.4753 144.423 66.3413 144.239 66.2195L142.105 66.9624C138.811 72.2842 133.093 73.0717 126.69 68.7972C122.935 71.6712 118.588 71.4236 114.891 67.2912C114.781 67.486 114.675 67.6971 114.577 67.9245C114.577 67.9245 114.573 67.9407 114.568 67.9448C114.56 67.965 114.548 67.9935 114.536 68.0259C114.528 68.0422 114.519 68.0625 114.511 68.0828C114.511 68.0949 114.503 68.1071 114.499 68.1152C114.401 68.3507 114.32 68.5942 114.242 68.8581C114.071 69.4426 113.985 69.9785 113.964 70.4737C113.969 70.5589 113.973 70.6442 113.981 70.7294C113.989 70.8309 114.001 70.9283 114.018 71.0258C114.03 71.1151 114.046 71.2044 114.066 71.2896C114.071 71.318 114.079 71.3465 114.083 71.3708C114.095 71.4195 114.107 71.4723 114.12 71.5169C114.12 71.521 114.124 71.5251 114.124 71.5291C114.136 71.5778 114.152 71.6225 114.164 71.6712C114.181 71.728 114.197 71.7808 114.217 71.8336C114.222 71.8417 114.222 71.8457 114.226 71.8539C114.246 71.9148 114.271 71.9716 114.295 72.0284C114.311 72.0771 114.332 72.1218 114.356 72.1705C114.385 72.2354 114.413 72.2963 114.45 72.3572C114.479 72.4222 114.511 72.4831 114.548 72.544C114.646 72.7144 114.752 72.8728 114.87 73.0229C114.903 73.0676 114.936 73.1123 114.973 73.1528C114.973 73.1528 114.974 73.1556 114.977 73.161C115.026 73.2219 115.075 73.2787 115.124 73.3355C115.254 73.4776 115.389 73.6156 115.532 73.7414C115.54 73.7496 115.544 73.7577 115.552 73.7617C115.56 73.7699 115.572 73.782 115.581 73.7942C115.642 73.8632 115.703 73.9241 115.768 73.9891C115.797 74.0134 115.821 74.0378 115.846 74.0621C115.87 74.0824 115.891 74.1068 115.915 74.1271C115.948 74.1555 115.985 74.188 116.017 74.2164C116.189 74.3666 116.368 74.5046 116.552 74.6304C116.601 74.667 116.654 74.6994 116.707 74.736C116.727 74.7522 116.752 74.7644 116.776 74.7806C116.813 74.805 116.854 74.8293 116.891 74.8537C116.985 74.9105 117.078 74.9674 117.176 75.0201C117.217 75.0445 117.258 75.0648 117.299 75.0851C117.331 75.1054 117.364 75.1216 117.397 75.1379C117.47 75.1784 117.544 75.2109 117.613 75.2474C117.638 75.2596 117.658 75.2677 117.682 75.2799C117.972 75.4179 118.262 75.5357 118.535 75.6371C118.56 75.6453 118.584 75.6534 118.605 75.6615C118.699 75.694 118.788 75.7264 118.874 75.7549C118.89 75.763 118.911 75.767 118.927 75.7711C118.952 75.7792 118.976 75.7873 119.005 75.7955C119.058 75.8117 119.115 75.8279 119.168 75.8482C119.172 75.8482 119.176 75.8482 119.18 75.8523C119.188 75.8523 119.193 75.8563 119.201 75.8563C119.209 75.8563 119.221 75.8604 119.229 75.8645C119.25 75.8645 119.27 75.8766 119.29 75.8807C119.319 75.8888 119.348 75.8969 119.372 75.9051C119.384 75.9091 119.397 75.9132 119.409 75.9172C119.437 75.9172 119.462 75.9294 119.486 75.9375C119.535 75.9497 119.58 75.9619 119.625 75.9741C119.662 75.9822 119.695 75.9903 119.731 75.9984C119.76 76.0065 119.788 76.0106 119.817 76.0187C119.829 76.0187 119.837 76.0187 119.85 76.0268C119.915 76.0431 119.972 76.0553 120.029 76.0674H120.037C120.037 76.0674 120.033 76.0796 120.029 76.0837C120.029 76.0918 120.025 76.104 120.017 76.1161V76.1243C120.017 76.1243 120.013 76.1364 120.009 76.1405C119.903 76.4409 119.76 76.8955 119.654 77.4354C119.633 77.5369 119.617 77.6424 119.601 77.752C119.597 77.7642 119.592 77.7805 119.592 77.7967C119.58 77.8819 119.568 77.9672 119.56 78.0565C119.552 78.1093 119.548 78.162 119.544 78.2148C119.531 78.3082 119.527 78.4056 119.523 78.503C119.515 78.6654 119.515 78.8318 119.519 78.9942V79.0104C119.511 79.2743 119.519 79.5463 119.548 79.8182C119.629 80.5611 119.682 81.0036 119.711 81.2634C119.654 81.3039 119.597 81.3445 119.539 81.3811C119.429 81.4582 119.327 81.5353 119.233 81.6125C118.993 81.8032 118.797 81.99 118.646 82.1767C118.764 82.1889 118.882 82.2051 119.001 82.2173C119.123 82.2295 119.241 82.2416 119.364 82.2579C121.262 82.4771 123.135 82.7044 124.984 82.9439C127.441 83.2605 129.857 83.5975 132.232 83.9587C133.652 84.1739 135.036 84.6448 136.244 85.4201C136.983 85.891 137.64 86.439 138.211 87.0479C139.468 88.3793 140.329 89.999 140.811 91.7283C140.905 91.7242 141.003 91.7242 141.092 91.7161C142.088 91.6836 142.933 91.5821 143.423 91.3873C143.974 91.1681 144.431 90.8027 144.81 90.3846C144.304 88.2332 144.035 85.9843 144.035 83.6746C144.035 83.4188 144.039 83.1672 144.047 82.9155C144.047 82.7896 144.047 82.6638 144.059 82.542C144.059 82.4487 144.064 82.3553 144.072 82.266C144.072 82.2051 144.072 82.1442 144.08 82.0833C144.08 82.0306 144.084 81.9737 144.088 81.921V81.9088C144.088 81.8641 144.092 81.8235 144.1 81.7789V81.7667C144.1 81.7383 144.1 81.718 144.104 81.6936C144.117 81.4744 144.133 81.2552 144.153 81.0401C144.174 80.7722 144.202 80.5083 144.235 80.2445C144.239 80.1876 144.247 80.1308 144.255 80.078C144.272 79.9238 144.292 79.7736 144.317 79.6193C144.325 79.5503 144.333 79.4813 144.345 79.4123C144.349 79.3798 144.353 79.3474 144.357 79.3189C144.361 79.2743 144.37 79.2296 144.378 79.189C144.378 79.1728 144.378 79.1566 144.386 79.1403C144.406 79.0064 144.427 78.8765 144.451 78.7466C144.48 78.5761 144.508 78.4097 144.541 78.2432C144.549 78.1783 144.561 78.1174 144.578 78.0524C144.59 77.9753 144.606 77.8941 144.623 77.817C144.627 77.8048 144.627 77.7926 144.631 77.7805C144.647 77.6993 144.664 77.6221 144.68 77.541C144.704 77.4273 144.729 77.3096 144.757 77.1959C144.761 77.1797 144.766 77.1675 144.77 77.1513C144.806 76.9889 144.843 76.8265 144.884 76.6642V76.652C144.884 76.652 144.888 76.6317 144.892 76.6236C144.896 76.6154 144.896 76.6114 144.9 76.6033C144.9 76.5911 144.904 76.5789 144.908 76.5708C144.908 76.5586 144.908 76.5505 144.917 76.5424C144.925 76.5058 144.933 76.4734 144.941 76.4409C144.941 76.4368 144.945 76.4287 144.945 76.4247C144.949 76.4084 144.953 76.3881 144.957 76.3719C144.957 76.3556 144.966 76.3353 144.97 76.3191C144.998 76.2054 145.027 76.0958 145.059 75.9822C145.125 75.7305 145.198 75.4829 145.272 75.2353C145.284 75.1987 145.292 75.1663 145.304 75.1338C145.382 74.8781 145.463 74.6223 145.549 74.3666C145.574 74.2854 145.602 74.2001 145.635 74.119C145.688 73.9566 145.745 73.7983 145.806 73.6359C145.908 73.3558 146.014 73.0757 146.125 72.7997C146.129 72.7997 146.133 72.7875 146.133 72.7834C146.21 72.5927 146.288 72.4059 146.369 72.2192C146.378 72.203 146.382 72.1867 146.39 72.1664C146.427 72.0771 146.467 71.9878 146.508 71.8985C146.569 71.7564 146.631 71.6144 146.7 71.4764C146.745 71.3708 146.794 71.2693 146.843 71.1678C146.863 71.1151 146.888 71.0664 146.916 71.0136C146.994 70.8512 147.071 70.6888 147.153 70.5305C147.108 70.4128 147.059 70.291 147.01 70.1693Z" fill="#A1D51C"/>
<path d="M143.974 66.0531L143.933 66.0287C143.757 65.9232 143.582 65.8217 143.402 65.7324C141.186 64.5958 138.933 64.5958 138.933 64.5958C138.933 64.5958 137.709 59.7246 131.179 59.0548C129.971 58.9331 128.914 59.063 127.988 59.3634C127.877 59.3999 127.767 59.4364 127.661 59.477C127.633 59.4892 127.604 59.4973 127.579 59.5095C127.498 59.5379 127.42 59.5704 127.343 59.6069C124.865 60.5568 123.057 62.5256 121.992 65.4401C121.956 65.4239 121.915 65.4117 121.882 65.3996C121.862 65.3914 121.841 65.3833 121.825 65.3752C121.817 65.3711 121.809 65.3711 121.805 65.3671C121.784 65.359 121.76 65.3549 121.739 65.3468C121.678 65.3265 121.621 65.3102 121.527 65.2778C121.507 65.2697 121.49 65.2656 121.47 65.2615C121.441 65.2494 121.409 65.2412 121.376 65.2291C121.351 65.225 121.327 65.2169 121.303 65.2088C121.209 65.1803 121.107 65.1519 121.005 65.1276C120.903 65.1032 120.796 65.0789 120.686 65.0545C120.674 65.0504 120.666 65.0505 120.654 65.0464C120.56 65.0261 120.466 65.0099 120.364 64.9896H120.352C120.258 64.9733 120.164 64.9571 120.066 64.9449C120.041 64.9409 120.021 64.9368 119.997 64.9368C119.915 64.9246 119.833 64.9165 119.752 64.9084C119.711 64.9084 119.67 64.9003 119.625 64.8962C119.535 64.8881 119.446 64.884 119.356 64.884C119.352 64.884 119.348 64.884 119.348 64.884H119.27C119.025 64.8759 118.776 64.884 118.523 64.9084C118.45 64.9165 118.376 64.9246 118.303 64.9327C118.152 64.953 118.001 64.9814 117.85 65.018C117.817 65.022 117.784 65.0302 117.752 65.0423C117.678 65.0586 117.609 65.0748 117.54 65.0992C117.487 65.1154 117.433 65.1316 117.38 65.1519C117.34 65.1641 117.299 65.1763 117.262 65.1925C117.197 65.2169 117.136 65.2412 117.07 65.2697C117.017 65.2899 116.968 65.3143 116.915 65.3387C116.821 65.3874 116.723 65.4361 116.629 65.4889C116.54 65.5376 116.45 65.5944 116.364 65.6553C116.254 65.7284 116.148 65.8055 116.042 65.8948C115.993 65.9313 115.948 65.9719 115.899 66.0166C115.866 66.045 115.834 66.0775 115.797 66.1099C115.76 66.1465 115.719 66.1871 115.679 66.2276C115.654 66.252 115.63 66.2804 115.601 66.3088C115.552 66.3616 115.507 66.4144 115.462 66.4672C115.413 66.524 115.368 66.5808 115.324 66.6417C115.295 66.6782 115.266 66.7188 115.238 66.7554C115.205 66.796 115.173 66.8406 115.148 66.8853C115.091 66.9664 115.034 67.0517 114.981 67.141C114.948 67.1897 114.919 67.2425 114.891 67.2952C118.588 71.4276 122.935 71.6752 126.69 68.8013C133.093 73.0757 138.811 72.2882 142.105 66.9664L144.239 66.2236C144.153 66.1668 144.064 66.1099 143.974 66.0572V66.0531ZM122.009 65.4483C122.009 65.4483 122.029 65.4523 122.041 65.4604C122.021 65.4564 122.017 65.4523 122.009 65.4483Z" fill="#C4F236"/>
<path d="M73.0215 47.9526L72.2665 47.9608C70.2014 65.8704 81.9186 77.4192 109.622 81.2633C109.883 81.2877 110.148 81.3121 110.41 81.3364C110.757 81.3689 111.099 81.4014 111.442 81.4338C111.446 81.4298 111.45 81.4338 111.454 81.4338C112.205 81.5028 112.952 81.5759 113.695 81.649C113.687 81.6246 113.679 81.5921 113.667 81.5637C113.85 81.6043 113.973 81.6327 114.034 81.6449C113.699 81.5719 113.564 80.9467 113.528 80.1389V80.1024C113.532 78.5233 113.834 76.5586 113.834 76.5586C113.813 76.5505 113.793 76.5464 113.777 76.5383C109.957 75.3165 108.304 72.686 108.381 70.2342V70.222C108.492 67.007 111.577 64.1006 116.67 65.0545C116.752 65.0708 116.838 65.087 116.919 65.1032C116.948 65.0302 116.976 64.9612 117.005 64.8881C118.895 60.2442 122.302 58.4094 127.343 59.6069C127.42 59.5704 127.498 59.5379 127.579 59.5095C127.604 59.4973 127.632 59.4892 127.661 59.477C127.767 59.4364 127.877 59.3999 127.988 59.3634C128.914 59.063 129.971 58.9331 131.179 59.0549C137.709 59.7246 138.933 64.5958 138.933 64.5958C138.933 64.5958 141.186 64.5958 143.402 65.7324C146.916 61.0764 151.324 58.7423 156.707 58.925C156.826 55.9292 157.589 53.3475 158.821 51.2691C159.597 49.9498 160.56 48.8376 161.666 47.9526H73.0215Z" fill="#84D2F4"/>
<path d="M140.99 98.1541C140.966 98.28 140.937 98.4058 140.909 98.5316C140.905 98.5438 140.901 98.5601 140.897 98.5722C140.746 99.2014 140.546 99.8144 140.305 100.407L133.44 99.8347L133.424 97.2733C133.55 94.7565 128.077 94.4845 127.947 96.9972C127.947 96.9972 127.955 97.184 127.971 97.5128C127.975 97.5574 127.975 97.6061 127.979 97.6589C127.979 97.7117 127.983 97.7685 127.988 97.8253C127.988 97.8822 127.992 97.943 127.996 98.008V98.0324C128 98.1298 128.004 98.2353 128.008 98.3449C128.012 98.3977 128.016 98.4545 128.016 98.5154C128.02 98.5722 128.02 98.6331 128.024 98.6981C128.037 98.9092 128.045 99.1405 128.057 99.38L105.28 97.4722V97.2367C105.28 97.1718 105.28 97.1109 105.271 97.0459C105.267 97.0094 105.267 96.9729 105.259 96.9363C105.247 96.843 105.222 96.7496 105.19 96.6644C105.178 96.6238 105.161 96.5832 105.141 96.5466C105.096 96.4492 105.039 96.3518 104.969 96.2625C104.957 96.2503 104.945 96.2341 104.937 96.2219C104.933 96.2178 104.929 96.2097 104.924 96.2057C104.912 96.1894 104.9 96.1732 104.884 96.161C104.871 96.1448 104.859 96.1326 104.847 96.1204C104.831 96.1001 104.81 96.0798 104.79 96.0636C104.606 95.885 104.382 95.7348 104.133 95.6171C104.055 95.5805 103.978 95.5481 103.9 95.5156C103.835 95.4912 103.765 95.4669 103.696 95.4466C103.659 95.4344 103.627 95.4222 103.59 95.4141C103.529 95.3938 103.463 95.3776 103.402 95.3613C103.349 95.3491 103.296 95.337 103.239 95.3289C103.165 95.3126 103.092 95.3004 103.019 95.2923C102.97 95.2842 102.921 95.2761 102.872 95.272C102.847 95.268 102.823 95.2639 102.794 95.2639C102.749 95.2558 102.704 95.2517 102.659 95.2517C102.382 95.2314 102.1 95.2355 101.827 95.268C101.745 95.2761 101.664 95.2883 101.582 95.3004C101.398 95.3329 101.223 95.3735 101.06 95.4263C100.974 95.4547 100.892 95.4831 100.815 95.5156C100.802 95.5196 100.79 95.5237 100.778 95.5318C100.737 95.5481 100.696 95.5684 100.66 95.5846C100.619 95.6008 100.582 95.6211 100.545 95.6455C100.492 95.6698 100.443 95.6982 100.398 95.7307C100.317 95.7835 100.239 95.8403 100.166 95.9012C100.145 95.9175 100.129 95.9337 100.113 95.954C100.023 96.0311 99.9495 96.1164 99.8883 96.2097C99.8638 96.2422 99.8434 96.2747 99.823 96.3112C99.8025 96.3437 99.7862 96.3762 99.7699 96.4086C99.7617 96.4208 99.7577 96.433 99.7536 96.4452C99.7291 96.4939 99.7087 96.5466 99.6924 96.5994C99.6924 96.5994 99.6924 96.6021 99.6924 96.6075C99.6801 96.6603 99.6638 96.709 99.6556 96.7618C99.6393 96.8349 99.6311 96.916 99.6271 96.9972C99.3169 96.9688 99.0149 96.9404 98.7129 96.9079C96.8314 96.7131 95.0765 96.4492 93.4481 96.1123C93.2195 96.0676 92.991 96.0189 92.7665 95.9662C92.6645 95.9459 92.5624 95.9215 92.4604 95.8972C92.2686 95.8525 92.0809 95.8079 91.8931 95.7632C91.685 95.7104 91.4768 95.6577 91.2728 95.6049C90.9789 95.5278 90.6851 95.4466 90.3994 95.3613C90.1586 95.2883 89.9178 95.2193 89.6852 95.1421C89.4648 95.0731 89.2526 95.0041 89.0403 94.931C88.9261 94.8945 88.8118 94.8539 88.7016 94.8093C88.6077 94.7768 88.5138 94.7443 88.42 94.7078C88.3261 94.6753 88.2322 94.6388 88.1343 94.6022C87.9751 94.5413 87.816 94.4805 87.6568 94.4155C87.4446 94.3303 87.2323 94.241 87.0201 94.1476H87.016C86.6691 93.9974 86.3345 93.8391 86.0039 93.6767C85.9957 93.6727 85.9876 93.6686 85.9753 93.6605C85.808 93.5793 85.6366 93.494 85.4733 93.4047C85.3101 93.3195 85.1468 93.2302 84.9836 93.1368C84.6775 92.9663 84.3877 92.7918 84.102 92.6091C84.0857 92.5969 84.0694 92.5888 84.0531 92.5766C83.9021 92.4792 83.7551 92.3818 83.6082 92.2803C83.3184 92.0814 83.0368 91.8744 82.7634 91.6633C82.7552 91.6592 82.7471 91.6552 82.7389 91.6471C82.4777 91.44 82.2206 91.2289 81.9757 91.0057C81.8492 90.8961 81.7268 90.7824 81.6043 90.6647C81.4819 90.547 81.3594 90.4293 81.2411 90.3075C81.1268 90.1898 81.0125 90.072 80.9023 89.9503C80.7881 89.8285 80.6779 89.7026 80.5718 89.5768C80.4616 89.451 80.3555 89.3251 80.2534 89.1952C80.1514 89.0694 80.0534 88.9436 79.9596 88.8137C79.9555 88.8096 79.9514 88.8055 79.9514 88.8015C79.8494 88.6716 79.7555 88.5376 79.6617 88.3996C79.3066 87.8922 78.9883 87.3645 78.7066 86.8124C78.6413 86.6947 78.5842 86.577 78.5271 86.4593C78.2291 85.8463 77.9679 85.2049 77.7476 84.5351C77.7067 84.4174 77.67 84.3038 77.6333 84.186C77.5476 83.9181 77.47 83.6462 77.4006 83.3742C77.3639 83.2362 77.3313 83.0981 77.2986 82.9561C77.27 82.8424 77.2456 82.7247 77.217 82.607C77.2047 82.5501 77.1925 82.4933 77.1803 82.4365C77.1599 82.3269 77.1354 82.2173 77.115 82.1036C77.1109 82.0833 77.1068 82.063 77.1027 82.0427C77.0782 81.9209 77.0578 81.7951 77.0374 81.6693C78.172 81.0726 79.4127 80.5895 80.7554 80.2444C82.1104 79.8994 83.5633 79.6924 85.1183 79.6477H85.3346V90.4333C85.2774 92.7187 90.3749 92.9988 91.1014 91.03C91.1585 90.892 91.1871 90.7378 91.1911 90.5754C91.1952 90.3846 91.1952 84.3159 91.1911 80.3378V79.9319C96.9457 80.2485 102.553 80.6423 107.998 81.1172V93.559C107.998 95.7997 113.903 95.7997 113.903 93.559V82.0184C113.94 82.0265 113.973 82.0346 114.001 82.0387C113.973 82.0265 113.944 82.0103 113.92 81.9859C113.915 81.9818 113.907 81.9778 113.903 81.9737V81.6693C115.503 81.8316 117.087 81.9981 118.654 82.1767C118.772 82.1889 118.89 82.2051 119.009 82.2173C119.131 82.2295 119.25 82.2416 119.372 82.2579V90.9651C119.372 92.804 124.992 92.804 124.992 90.9651V82.9439C127.449 83.2605 129.865 83.5974 132.24 83.9587C133.66 84.1739 135.044 84.6447 136.252 85.4201C136.991 85.891 137.648 86.439 138.219 87.0479C139.476 88.3793 140.337 89.999 140.819 91.7282C140.856 91.8663 140.892 92.0002 140.925 92.1382C141.407 94.0989 141.419 96.1854 140.999 98.1541H140.99Z" fill="#F89C8D"/>
<path d="M100.003 109.934C95.7948 110.166 91.4728 110.34 86.9589 110.454C86.6895 110.462 86.4243 110.458 86.1549 110.446C85.355 110.409 83.5103 110.369 83.2246 110.328C77.2088 109.407 73.1643 106.691 70.8788 103.232C70.0299 101.95 69.4259 100.569 69.0504 99.1365C68.7158 97.8538 68.5607 96.5345 68.5852 95.2111C68.5893 94.9676 68.5974 94.724 68.6178 94.4845C68.6954 93.2951 68.9158 92.1139 69.2749 90.9651C69.6871 89.6174 70.2911 88.3184 71.0747 87.1088C71.5726 86.3334 72.144 85.5946 72.7848 84.9086C72.846 84.8437 72.9072 84.7747 72.9725 84.7097C74.1193 83.5244 75.4743 82.4893 77.0293 81.6693C77.0497 81.7951 77.0701 81.921 77.0946 82.0427C77.0986 82.063 77.1027 82.0833 77.1068 82.1036C77.1272 82.2173 77.1517 82.3269 77.1721 82.4365C77.1843 82.4933 77.1966 82.5502 77.2088 82.607C77.2374 82.7247 77.2619 82.8424 77.2905 82.9561C77.3231 83.0982 77.3558 83.2362 77.3925 83.3742C77.4619 83.6462 77.5394 83.9181 77.6251 84.1861C77.6618 84.3038 77.6986 84.4174 77.7394 84.5352C77.9598 85.2049 78.221 85.8463 78.5189 86.4593C78.576 86.577 78.6332 86.6947 78.6985 86.8124C78.9801 87.3645 79.2984 87.8922 79.6535 88.3996C79.7433 88.5336 79.8412 88.6675 79.9433 88.8015C79.9433 88.8055 79.9433 88.8096 79.9514 88.8137C80.0453 88.9436 80.1432 89.0694 80.2453 89.1952C80.3473 89.3251 80.4534 89.451 80.5636 89.5768C80.6697 89.7027 80.7799 89.8285 80.8942 89.9503C81.0003 90.0721 81.1146 90.1898 81.2329 90.3075C81.3513 90.4293 81.4737 90.547 81.5962 90.6647C81.7186 90.7824 81.841 90.8961 81.9675 91.0057C82.2124 91.229 82.4695 91.44 82.7307 91.6471C82.7389 91.6552 82.7471 91.6592 82.7552 91.6633C83.0287 91.8784 83.3062 92.0814 83.6 92.2803C83.747 92.3818 83.8939 92.4792 84.0449 92.5766C84.0612 92.5888 84.0775 92.5969 84.0939 92.6091C84.3796 92.7918 84.6693 92.9663 84.9754 93.1368C85.1387 93.2302 85.3019 93.3195 85.4652 93.4048C85.6284 93.4941 85.7998 93.5793 85.9672 93.6605C85.9794 93.6686 85.9876 93.6727 85.9957 93.6767C86.3263 93.8391 86.661 93.9974 87.0079 94.1476H87.012C87.2242 94.241 87.4364 94.3303 87.6486 94.4155C87.8078 94.4805 87.967 94.5414 88.1261 94.6022C88.2241 94.6388 88.318 94.6753 88.4118 94.7078C88.5057 94.7443 88.5996 94.7768 88.6934 94.8093C88.8036 94.8539 88.9179 94.8945 89.0322 94.9311C89.2444 95.0041 89.4566 95.0731 89.677 95.1421C89.9096 95.2193 90.1504 95.2923 90.3912 95.3613C90.6769 95.4466 90.9708 95.5278 91.2646 95.6049C91.4687 95.6577 91.6768 95.7104 91.885 95.7632C92.0727 95.8079 92.2604 95.8525 92.4522 95.8972C92.5543 95.9215 92.6563 95.9459 92.7583 95.9662C92.9828 96.0189 93.2114 96.0677 93.4399 96.1123C95.0683 96.4492 96.8232 96.7131 98.7047 96.9079C99.0067 96.9404 99.3087 96.9688 99.6189 96.9972L99.9985 109.934H100.003Z" fill="#F8664F"/>
<path d="M105.28 97.4722L105.447 109.597C113.181 109.057 120.637 108.311 128.367 107.353C128.306 105.124 128.159 101.674 128.057 99.3801L105.28 97.4722Z" fill="#F8664F"/>
<path d="M133.44 99.8347L133.477 106.553C136.395 105.684 138.872 103.638 140.125 100.833C140.186 100.691 140.248 100.549 140.305 100.407L133.44 99.8347Z" fill="#F8664F"/>
<path d="M105.275 97.2367C105.386 94.7403 99.7291 94.5008 99.623 96.9972L100.003 109.934C101.839 109.833 103.651 109.719 105.447 109.597L105.28 97.4722V97.2367H105.275Z" fill="#CC5144"/>
<path d="M91.183 90.5754C91.1789 90.7378 91.1503 90.892 91.0932 91.03C90.3667 92.9988 85.2693 92.7187 85.3264 90.4333V79.6477C85.5223 79.6477 85.7141 79.6518 85.91 79.6599C86.1753 79.6721 86.4447 79.6843 86.7099 79.7005C88.2118 79.7736 89.7015 79.8507 91.183 79.9319V80.3378C91.1871 84.3159 91.1871 90.3846 91.183 90.5754Z" fill="#CC5144"/>
<path d="M113.895 81.6693V93.559C113.895 95.7997 107.99 95.7997 107.99 93.559V81.1172C108.532 81.1659 109.079 81.2146 109.622 81.2633C109.883 81.2877 110.148 81.312 110.41 81.3364C110.757 81.3689 111.099 81.4014 111.442 81.4338C111.446 81.4298 111.45 81.4338 111.454 81.4338C112.205 81.5028 112.952 81.5759 113.695 81.649C113.76 81.6571 113.83 81.6612 113.895 81.6693Z" fill="#CC5144"/>
<path d="M133.44 99.8347L133.424 97.2733C133.55 94.7565 128.077 94.4845 127.947 96.9972C127.947 96.9972 127.992 97.9715 128.057 99.3801C128.159 101.674 128.306 105.124 128.367 107.353C129.481 107.215 130.6 107.072 131.726 106.926C132.322 106.849 132.91 106.723 133.477 106.553L133.44 99.8347Z" fill="#CC5144"/>
<path d="M119.364 82.2579V90.9651C119.364 92.804 124.984 92.804 124.984 90.9651V82.9439C123.135 82.7044 121.262 82.4771 119.364 82.2579Z" fill="#CC5144"/>
<path d="M69.03 85.6799C65.414 89.382 56.6027 84.7178 52.5173 82.2213C53.5621 79.6437 56.3782 77.4273 58.7371 78.6004C58.7371 78.6004 65.0467 82.9155 69.03 85.6799Z" fill="#C0ED35"/>
<path d="M70.8788 103.232L59.7574 111.278C55.6558 114.136 50.7787 109.248 52.4112 105.189C52.5581 104.876 52.7704 104.572 53.0479 104.263C54.0437 106.407 57.3087 106.813 59.3493 106.001L63.8999 102.798L64.5366 102.347C64.5366 102.347 59.4309 102.603 54.9538 102.684L60.8757 99.4206L69.0504 99.1365C69.4259 100.569 70.0299 101.95 70.8788 103.232Z" fill="#7AB92D"/>
<path d="M71.0747 87.1088C70.2911 88.3184 69.6871 89.6174 69.2749 90.9651H64.6304L61.341 90.9164H61.3369L53.9009 87.2671C51.9256 86.1751 51.7501 84.1008 52.5173 82.2213C56.6027 84.7178 65.414 89.382 69.03 85.6799C69.8259 86.236 70.5319 86.7272 71.0747 87.1088Z" fill="#A1D51C"/>
<path d="M68.6178 94.4845C68.6954 93.2951 68.9158 92.1139 69.2749 90.9651H64.6305L61.341 90.9164L65.4998 92.9542C65.4304 93.0029 65.361 93.0516 65.2916 93.0922C65.2222 93.1328 65.1529 93.1734 65.0835 93.214C64.9447 93.2911 64.8019 93.3601 64.6549 93.4169C61.7287 94.5819 53.2601 95.9865 49.636 92.8243C48.4769 95.4587 49.4931 99.7089 52.6153 99.7089L60.8757 99.4206L69.0504 99.1365C68.7158 97.8537 68.5607 96.5345 68.5852 95.2111C68.5893 94.9676 68.5974 94.724 68.6178 94.4845Z" fill="#A1D51C"/>
<path d="M65.4998 92.9542C65.4304 93.0029 65.361 93.0516 65.2916 93.0922C65.2222 93.1328 65.1528 93.1734 65.0835 93.214C64.9447 93.2911 64.8019 93.3601 64.6549 93.4169C61.7287 94.5819 53.2601 95.9865 49.636 92.8243C50.1543 91.6389 51.1134 90.7784 52.5173 90.7784L61.3369 90.9123H61.341L65.4998 92.9542Z" fill="#C4F236"/>
<path d="M54.9538 102.684C54.1662 103.216 53.5173 103.74 53.0479 104.263C54.0437 106.407 57.3087 106.813 59.3493 106.001L63.8999 102.798L64.5366 102.347C64.5366 102.347 59.431 102.603 54.9538 102.684Z" fill="#A1D51C"/>
<path d="M199.948 83.6746C199.948 84.6285 199.903 85.5703 199.813 86.4999C182.117 93.421 168.616 88.5661 159.544 71.2937L160.707 70.1368L161.176 69.67L166.649 64.2264L170.563 82.6598L173.012 79.8183C173.297 80.1024 178.134 74.0824 181.044 70.4047L186.48 84.2835L188.929 81.036L197.116 71.111C198.932 74.9024 199.948 79.1688 199.948 83.6746Z" fill="#F89C8D"/>
<path d="M188.929 81.036L186.48 84.2835L181.044 70.4047C182.313 68.8013 183.215 67.6403 183.215 67.6403L188.929 81.036Z" fill="#F8664F"/>
<path d="M173.012 79.8182L170.563 82.6598L166.649 64.2264L168.931 61.9573C168.931 61.9573 172.604 79.4123 173.012 79.8182Z" fill="#F8664F"/>
<path d="M199.813 86.4999C198.426 100.979 186.5 112.293 171.991 112.293C161.743 112.293 152.785 106.65 147.92 98.2313C147.79 98.0121 147.667 97.7929 147.545 97.5696C146.337 95.3411 145.406 92.9298 144.81 90.3846C144.304 88.2332 144.035 85.9844 144.035 83.6746C144.035 83.4189 144.039 83.1672 144.047 82.9155C144.047 82.7897 144.047 82.6638 144.059 82.5421C144.059 82.4487 144.064 82.3553 144.072 82.266C144.072 82.2051 144.072 82.1442 144.08 82.0834C144.08 82.0306 144.084 81.9738 144.088 81.921V81.9088C144.088 81.8642 144.092 81.8195 144.096 81.7748V81.7667C144.096 81.7383 144.096 81.718 144.1 81.6937C144.113 81.4745 144.129 81.2553 144.149 81.0401C144.17 80.7722 144.198 80.5083 144.231 80.2445C144.235 80.1877 144.243 80.1308 144.251 80.0781C144.268 79.9238 144.288 79.7736 144.312 79.6194C144.321 79.5503 144.329 79.4813 144.341 79.4123C144.345 79.3799 144.349 79.3474 144.353 79.319C144.357 79.2743 144.366 79.2297 144.374 79.1891C144.374 79.1728 144.374 79.1566 144.382 79.1404C144.402 79.0064 144.423 78.8765 144.447 78.7466C144.476 78.5761 144.504 78.4097 144.537 78.2432C144.545 78.1783 144.557 78.1174 144.574 78.0525C144.586 77.9753 144.602 77.8941 144.619 77.817C144.623 77.8048 144.623 77.7927 144.627 77.7805C144.643 77.6993 144.659 77.6222 144.676 77.541C144.7 77.4273 144.725 77.3096 144.753 77.1959C144.757 77.1797 144.761 77.1675 144.766 77.1513C144.802 76.9889 144.839 76.8265 144.88 76.6642V76.652C144.88 76.652 144.884 76.6317 144.888 76.6236C144.892 76.6155 144.892 76.6114 144.896 76.6033C144.896 76.5911 144.9 76.5789 144.904 76.5708C144.904 76.5586 144.904 76.5505 144.912 76.5424C144.921 76.5059 144.929 76.4734 144.937 76.4409C144.937 76.4369 144.941 76.4287 144.941 76.4247C144.945 76.4084 144.949 76.3881 144.953 76.3719C144.957 76.3557 144.961 76.3354 144.965 76.3191C144.994 76.2055 145.023 76.0959 145.055 75.9822C145.121 75.7305 145.194 75.4829 145.268 75.2353C145.28 75.1988 145.288 75.1663 145.3 75.1338C145.378 74.8781 145.459 74.6223 145.545 74.3666C145.57 74.2854 145.598 74.2002 145.631 74.119C145.684 73.9566 145.741 73.7983 145.802 73.6359C145.904 73.3558 146.01 73.0757 146.12 72.7997C146.125 72.7997 146.129 72.7875 146.129 72.7835C146.206 72.5927 146.284 72.406 146.365 72.2192C146.374 72.203 146.378 72.1868 146.386 72.1665C146.422 72.0772 146.463 71.9878 146.504 71.8985C146.565 71.7565 146.627 71.6144 146.696 71.4764C146.741 71.3708 146.79 71.2694 146.839 71.1679C146.859 71.1151 146.884 71.0664 146.912 71.0136C146.99 70.8512 147.067 70.6889 147.149 70.5306C147.284 70.2626 147.422 70.0028 147.565 69.739C147.7 69.4914 147.839 69.2438 147.986 69.0002C148.353 68.3588 148.753 67.7378 149.173 67.1329C149.288 66.9665 149.406 66.8001 149.52 66.6377C149.565 66.5768 149.61 66.5159 149.659 66.455C149.785 66.2805 149.912 66.11 150.043 65.9395C150.304 65.6066 150.569 65.2778 150.847 64.9531C150.957 64.815 151.075 64.6811 151.193 64.5471C151.377 64.336 151.565 64.125 151.761 63.922C151.879 63.7921 152.002 63.6622 152.128 63.5364C152.202 63.4552 152.279 63.3781 152.357 63.3009C152.508 63.1467 152.659 63.0005 152.81 62.8585C152.867 62.7976 152.924 62.7448 152.981 62.692C153.12 62.5581 153.263 62.4241 153.405 62.3023C153.503 62.2049 153.601 62.1156 153.699 62.0385C153.805 61.937 153.916 61.8436 154.026 61.7503C154.132 61.6528 154.242 61.5635 154.348 61.4783C154.491 61.3565 154.638 61.2388 154.785 61.1211C154.858 61.0602 154.936 60.9993 155.013 60.9425C155.181 60.8085 155.348 60.6786 155.52 60.5528C155.56 60.5203 155.601 60.4919 155.642 60.4635C155.862 60.3011 156.079 60.1428 156.303 59.9885H156.307C156.45 59.883 156.593 59.7856 156.74 59.6881L156.683 59.5379C156.687 59.3309 156.691 59.128 156.703 58.925L156.96 59.542L157.148 59.9966L161.172 69.67L160.703 70.1368L159.54 71.2937C159.682 71.5616 159.825 71.8295 159.968 72.0934C160.086 72.3085 160.205 72.5196 160.323 72.7307C160.409 72.885 160.499 73.0433 160.584 73.1935C160.613 73.2422 160.637 73.2868 160.666 73.3355C160.821 73.6035 160.98 73.8714 161.139 74.1312C161.278 74.3666 161.421 74.598 161.568 74.8294C161.678 75.0039 161.788 75.1785 161.899 75.349C161.923 75.3855 161.943 75.422 161.968 75.4586C162.176 75.7792 162.384 76.0918 162.596 76.4003C162.747 76.6195 162.898 76.8347 163.049 77.0498C163.078 77.0863 163.102 77.1269 163.131 77.1635C163.213 77.2731 163.29 77.3827 163.368 77.4882C163.449 77.5978 163.527 77.7074 163.609 77.813C163.764 78.02 163.919 78.227 164.074 78.43C164.266 78.6695 164.453 78.909 164.645 79.1444C164.759 79.2865 164.878 79.4286 164.996 79.5666C165.074 79.6599 165.155 79.7533 165.233 79.8467C165.388 80.0293 165.543 80.2039 165.698 80.3784C165.772 80.4596 165.841 80.5408 165.914 80.6179C166.065 80.7884 166.225 80.9589 166.38 81.1213C166.69 81.4501 167.008 81.7708 167.327 82.0834C167.808 82.5502 168.298 82.9926 168.796 83.4189C168.959 83.5609 169.126 83.699 169.294 83.8329C169.486 83.9912 169.681 84.1414 169.873 84.2916C170.008 84.3972 170.147 84.4986 170.281 84.6001C170.673 84.8883 171.069 85.1644 171.465 85.4282C171.596 85.5175 171.722 85.5987 171.853 85.6799C172.208 85.9072 172.567 86.1224 172.93 86.3294C173.11 86.4309 173.289 86.5283 173.469 86.6257C173.653 86.7231 173.84 86.8206 174.024 86.9139H174.028C174.208 87.0073 174.387 87.0925 174.567 87.1778C174.579 87.1859 174.595 87.19 174.608 87.1981C174.779 87.2793 174.954 87.3564 175.13 87.4335C175.318 87.5147 175.505 87.5959 175.697 87.673C175.885 87.7502 176.077 87.8273 176.264 87.9003C176.836 88.1155 177.415 88.3144 177.999 88.4889C178.362 88.5945 178.73 88.696 179.097 88.7893C179.125 88.7934 179.154 88.8015 179.183 88.8096C179.583 88.903 179.982 88.9923 180.387 89.0694C180.587 89.106 180.782 89.1425 180.982 89.179H180.995C181.888 89.3252 182.794 89.4266 183.721 89.4835C183.905 89.4916 184.092 89.5038 184.276 89.5119C184.823 89.5322 185.378 89.5363 185.937 89.5281H186.055C186.235 89.52 186.419 89.516 186.598 89.5078C186.631 89.5078 186.659 89.5078 186.688 89.5038C186.876 89.4957 187.063 89.4875 187.251 89.4754C187.667 89.451 188.084 89.4145 188.508 89.3739C188.716 89.3536 188.924 89.3292 189.137 89.3049H189.149C189.194 89.3008 189.235 89.2927 189.28 89.2886C189.365 89.2765 189.447 89.2683 189.529 89.2562C189.614 89.244 189.696 89.2359 189.777 89.2237C189.994 89.1912 190.206 89.1587 190.422 89.1263C190.492 89.1141 190.557 89.106 190.626 89.0938C190.839 89.0613 191.051 89.0248 191.263 88.9842C191.394 88.9598 191.528 88.9355 191.663 88.9071C191.675 88.9071 191.683 88.903 191.696 88.8989C191.728 88.8949 191.761 88.8868 191.798 88.8827C191.945 88.8543 192.092 88.8218 192.238 88.7934C192.34 88.7731 192.438 88.7528 192.54 88.7284C192.549 88.7284 192.553 88.7244 192.561 88.7244C192.598 88.7163 192.638 88.7081 192.675 88.7C192.736 88.6879 192.802 88.6716 192.867 88.6554C193.03 88.6229 193.193 88.5823 193.357 88.5458C193.622 88.4808 193.887 88.4159 194.157 88.3469C195.377 88.0302 196.626 87.6527 197.891 87.2103C198.524 86.987 199.164 86.7516 199.809 86.4999H199.813Z" fill="#F8664F"/>
<path d="M192.263 63.9666C192.051 63.9463 191.838 63.926 191.63 63.9017C191.361 63.8733 191.092 63.8448 190.83 63.8083C190.565 63.7758 190.304 63.7434 190.043 63.7068C189.786 63.6703 189.529 63.6338 189.271 63.5932C189.027 63.5526 188.786 63.512 188.545 63.4714C188.525 63.4714 188.508 63.4673 188.492 63.4633C188.288 63.4267 188.084 63.3902 187.884 63.3496C187.818 63.3415 187.757 63.3293 187.696 63.3131C187.533 63.2847 187.374 63.2522 187.219 63.2156C187.133 63.2035 187.051 63.1832 186.97 63.1629C186.77 63.1223 186.57 63.0776 186.374 63.0289C186.1 62.968 185.831 62.9031 185.566 62.8341C185.337 62.7772 185.117 62.7164 184.896 62.6555C184.676 62.5946 184.456 62.5296 184.243 62.4647C184.064 62.4119 183.888 62.3551 183.713 62.2982C183.309 62.1683 182.913 62.0344 182.525 61.8883C182.137 61.7462 181.758 61.6 181.386 61.4417C181.293 61.4052 181.199 61.3646 181.105 61.32C180.966 61.2631 180.831 61.2022 180.701 61.1413C180.497 61.052 180.297 60.9546 180.101 60.8572C179.913 60.7679 179.734 60.6786 179.554 60.5852C179.003 60.297 178.477 59.9966 177.97 59.6759C177.885 59.6232 177.799 59.5663 177.713 59.5095C177.53 59.3918 177.346 59.27 177.171 59.1442C177.015 59.0386 176.86 58.929 176.709 58.8154C176.501 58.6611 176.297 58.5028 176.097 58.3404C176.089 58.3364 176.081 58.3282 176.073 58.3201C176.044 58.2958 176.011 58.2714 175.983 58.2471C175.816 58.1131 175.648 57.971 175.485 57.8289C175.293 57.6625 175.11 57.4961 174.93 57.3256C174.922 57.3215 174.918 57.3134 174.91 57.3053C174.722 57.1267 174.538 56.944 174.359 56.7573C174.183 56.5787 174.016 56.4001 173.852 56.2133C173.742 56.0875 173.632 55.9617 173.522 55.8318C173.457 55.7546 173.391 55.6775 173.33 55.6004C173.187 55.4258 173.053 55.2513 172.918 55.0727C172.804 54.9184 172.689 54.7642 172.579 54.6018C172.493 54.4841 172.412 54.3623 172.334 54.2405C172.277 54.1593 172.224 54.0781 172.175 53.997C172.093 53.8752 172.016 53.7534 171.942 53.6276C171.84 53.4652 171.738 53.2947 171.645 53.1242C171.604 53.0552 171.567 52.9902 171.526 52.9172C171.338 52.5762 171.159 52.223 170.987 51.8658C170.898 51.671 170.808 51.4721 170.722 51.2732C170.636 51.0783 170.559 50.8835 170.477 50.6886C170.477 50.6805 170.473 50.6724 170.469 50.6643C170.461 50.644 170.453 50.6237 170.445 50.6034C170.392 50.4694 170.339 50.3314 170.29 50.1893C170.237 50.0432 170.183 49.897 170.134 49.7509C170.102 49.6657 170.073 49.5764 170.045 49.4871C169.939 49.1542 169.837 48.8173 169.743 48.4722C169.69 48.3017 169.645 48.1272 169.604 47.9526C169.53 47.6685 169.461 47.3803 169.4 47.0839C169.379 46.9865 169.359 46.8891 169.339 46.7917C169.257 46.3939 169.184 45.9961 169.122 45.5861C166.351 45.4318 163.76 46.2761 161.666 47.9526C160.56 48.8376 159.597 49.9498 158.821 51.2691C157.589 53.3475 156.826 55.9292 156.707 58.925L156.964 59.542L157.152 59.9966L161.176 69.67L166.649 64.2264L168.931 61.9573C168.931 61.9573 172.604 79.4123 173.012 79.8182C173.297 80.1024 178.134 74.0824 181.044 70.4047C182.313 68.8013 183.215 67.6403 183.215 67.6403L186.423 75.1622L188.929 81.036L197.116 71.111L200.76 66.6945C201.393 65.9273 201.862 65.0383 202.131 64.0965C198.691 64.1818 194.52 64.1777 192.263 63.9666Z" fill="#7AB92D"/>
<path d="M193.826 51.809C193.789 51.8171 193.748 51.8253 193.712 51.8334C189.48 52.7467 185.557 53.1364 182.411 52.2231C181.019 51.8252 179.774 51.1636 178.725 50.1853C177.807 49.3125 176.873 48.5697 175.926 47.9527C173.652 46.471 171.33 45.7079 169.122 45.5861C169.184 45.9961 169.257 46.3939 169.339 46.7917C169.359 46.8891 169.379 46.9866 169.4 47.084C169.461 47.3803 169.53 47.6685 169.604 47.9527C169.645 48.1272 169.69 48.3018 169.743 48.4723C169.837 48.8173 169.939 49.1542 170.045 49.4871C170.073 49.5764 170.102 49.6657 170.134 49.7509C170.183 49.8971 170.236 50.0432 170.29 50.1893C170.339 50.3314 170.392 50.4694 170.445 50.6034C170.453 50.6237 170.461 50.644 170.469 50.6643C170.473 50.6724 170.477 50.6805 170.477 50.6886C170.559 50.8835 170.636 51.0783 170.722 51.2732C170.808 51.4721 170.898 51.671 170.987 51.8658C171.159 52.2231 171.338 52.5762 171.526 52.9172C171.567 52.9903 171.604 53.0552 171.645 53.1242C171.738 53.2947 171.84 53.4652 171.942 53.6276C172.016 53.7534 172.093 53.8752 172.175 53.997C172.224 54.0782 172.277 54.1594 172.334 54.2405C172.412 54.3623 172.493 54.4841 172.579 54.6018C172.689 54.7642 172.804 54.9184 172.918 55.0727C173.053 55.2513 173.187 55.4259 173.33 55.6004C173.391 55.6775 173.457 55.7547 173.522 55.8318C173.632 55.9617 173.742 56.0875 173.852 56.2134C174.016 56.4001 174.183 56.5787 174.359 56.7573C174.538 56.944 174.722 57.1267 174.91 57.3053C174.918 57.3134 174.922 57.3216 174.93 57.3256C175.109 57.4961 175.293 57.6625 175.485 57.829C175.648 57.9711 175.816 58.1131 175.983 58.2471C176.011 58.2714 176.044 58.2958 176.073 58.3201C176.081 58.3283 176.089 58.3364 176.097 58.3404C176.297 58.5028 176.501 58.6611 176.709 58.8154C176.86 58.929 177.015 59.0386 177.17 59.1442C177.346 59.27 177.53 59.3918 177.713 59.5095C177.799 59.5664 177.885 59.6232 177.97 59.676C178.477 59.9966 179.003 60.297 179.554 60.5852C179.734 60.6745 179.917 60.7679 180.101 60.8572C180.297 60.9546 180.497 61.048 180.701 61.1414C180.831 61.2023 180.966 61.2631 181.105 61.32C181.199 61.3646 181.293 61.4052 181.386 61.4418C181.758 61.6001 182.137 61.7462 182.525 61.8883C182.913 62.0344 183.309 62.1684 183.713 62.2983C183.888 62.3551 184.064 62.4119 184.243 62.4647C184.456 62.5297 184.676 62.5946 184.896 62.6555C185.117 62.7164 185.337 62.7773 185.566 62.8341C185.831 62.9031 186.1 62.9681 186.374 63.0289C186.57 63.0777 186.77 63.1223 186.97 63.1629C187.051 63.1832 187.133 63.2035 187.219 63.2157C187.374 63.2522 187.533 63.2847 187.696 63.3131C187.757 63.3293 187.818 63.3415 187.884 63.3496C188.084 63.3902 188.288 63.4268 188.492 63.4633C188.508 63.4674 188.525 63.4714 188.545 63.4714C188.786 63.512 189.027 63.5526 189.271 63.5932C189.528 63.6338 189.786 63.6703 190.043 63.7069C190.304 63.7434 190.565 63.7759 190.83 63.8083C191.092 63.8449 191.361 63.8733 191.63 63.9017C191.838 63.9261 192.051 63.9464 192.263 63.9667C194.52 64.1777 198.691 64.1818 202.131 64.0965C202.315 63.4511 202.401 62.7773 202.38 62.0994C202.242 57.4961 198.944 53.2663 193.826 51.809Z" fill="#A1D51C"/>
<path d="M212.257 43.6823C207.902 44.5225 203.67 44.8879 199.568 44.7823C199.258 44.7783 198.944 44.7661 198.634 44.7499C198.597 44.7499 198.556 44.7499 198.515 44.7458C198.234 44.7336 197.956 44.7174 197.679 44.7011C197.536 44.693 197.397 44.6849 197.254 44.6727C196.899 44.6484 196.544 44.62 196.189 44.5875C195.822 44.555 195.454 44.5185 195.087 44.4738C194.724 44.4332 194.361 44.3886 193.997 44.3399C193.936 44.3317 193.879 44.3236 193.822 44.3155C193.528 44.2749 193.234 44.2303 192.94 44.1815C192.859 44.1734 192.777 44.1613 192.7 44.145C192.438 44.1044 192.181 44.0598 191.924 44.0111C191.834 43.9989 191.745 43.9826 191.655 43.9664C191.618 43.9583 191.581 43.9542 191.549 43.9461C191.283 43.8974 191.018 43.8446 190.757 43.7919C189.871 43.6092 188.99 43.4062 188.116 43.1789C187.949 43.1342 187.786 43.0896 187.623 43.0449C187.125 42.9069 186.627 42.7648 186.129 42.6106C184.129 44.1044 182.248 45.8905 180.493 47.9526C179.889 48.663 179.301 49.4099 178.725 50.1853C179.774 51.1636 181.019 51.8252 182.411 52.223C185.557 53.1364 189.48 52.7467 193.712 51.8334C193.748 51.8252 193.789 51.8171 193.826 51.809C200.176 49.5236 206.025 49.2963 211.604 50.1853L212.277 44.0963C212.273 43.9583 212.269 43.8203 212.257 43.6823Z" fill="#7AB92D"/>
<path d="M206.886 36.7895C201.764 36.4607 197.083 37.1468 192.838 38.8354C190.467 39.7772 188.231 41.0396 186.129 42.6106C186.627 42.7649 187.125 42.9069 187.623 43.0449C187.786 43.0896 187.949 43.1343 188.116 43.1789C188.99 43.4062 189.871 43.6092 190.757 43.7919C191.018 43.8446 191.283 43.8974 191.549 43.9461C191.581 43.9542 191.618 43.9583 191.655 43.9664C191.745 43.9826 191.834 43.9989 191.924 44.0111C192.181 44.0598 192.438 44.1044 192.7 44.145C192.777 44.1613 192.859 44.1734 192.94 44.1816C193.234 44.2303 193.528 44.2749 193.822 44.3155C193.879 44.3236 193.936 44.3317 193.997 44.3399C194.361 44.3886 194.724 44.4332 195.087 44.4738C195.454 44.5185 195.822 44.555 196.189 44.5875C196.544 44.62 196.899 44.6484 197.254 44.6727C197.397 44.6849 197.54 44.693 197.679 44.7011C197.956 44.7174 198.234 44.7336 198.515 44.7458C198.556 44.7499 198.597 44.7499 198.634 44.7499C198.944 44.7661 199.258 44.7783 199.568 44.7823C203.67 44.8879 207.902 44.5225 212.257 43.6823C212.057 40.585 210.355 38.2387 206.886 36.7895Z" fill="#A1D51C"/>
<path d="M0 116.608H5.86474V138.329H15.5699V143.399H0V116.608Z" fill="#23353E"/>
<path d="M23.4753 142.632C21.8714 141.719 20.6225 140.44 19.7328 138.792C18.8431 137.144 18.3982 135.232 18.3982 133.06C18.3982 130.888 18.8349 128.977 19.7124 127.328C20.5898 125.68 21.8305 124.398 23.4345 123.488C25.0384 122.575 26.8913 122.12 28.9972 122.12C31.1031 122.12 32.9519 122.571 34.5599 123.468C36.1638 124.365 37.4045 125.632 38.282 127.268C39.1595 128.903 39.5962 130.795 39.5962 132.938C39.5962 135.082 39.1595 137.034 38.282 138.711C37.4045 140.387 36.1638 141.686 34.5599 142.612C32.956 143.537 31.1154 144 29.038 144C26.9607 144 25.0792 143.545 23.4753 142.632ZM32.4948 137.424C33.3723 136.312 33.809 134.842 33.809 133.02C33.809 131.197 33.3723 129.74 32.4948 128.656C31.6173 127.568 30.4542 127.028 28.9972 127.028C27.5402 127.028 26.373 127.572 25.4996 128.656C24.6221 129.744 24.1854 131.197 24.1854 133.02C24.1854 134.842 24.6221 136.312 25.4996 137.424C26.377 138.536 27.5402 139.092 28.9972 139.092C30.4542 139.092 31.6173 138.536 32.4948 137.424Z" fill="#23353E"/>
<path d="M45.718 141.264C43.8162 139.441 42.8652 136.868 42.8652 133.539C42.8652 131.286 43.3101 129.293 44.1998 127.564C45.0895 125.835 46.3424 124.495 47.9627 123.541C49.5789 122.591 51.4522 122.112 53.5826 122.112C54.5784 122.112 55.6232 122.226 56.717 122.453C57.8107 122.681 58.6515 122.944 59.2432 123.237L58.1495 128.023C57.5291 127.726 56.8475 127.495 56.1088 127.32C55.3661 127.146 54.6723 127.061 54.0274 127.061C52.3541 127.061 51.0155 127.625 50.0033 128.749C48.9912 129.878 48.4851 131.363 48.4851 133.214C48.4851 135.065 49.0034 136.539 50.04 137.558C51.0767 138.577 52.5541 139.088 54.4682 139.088C55.7334 139.088 57.0965 138.849 58.5535 138.366L59.4024 142.953C57.6475 143.651 55.7619 144 53.7417 144C50.289 144 47.6158 143.087 45.7139 141.264H45.718Z" fill="#23353E"/>
<path d="M64.1407 141.264C62.8715 139.441 62.2389 136.961 62.2389 133.823C62.2389 130.016 63.2102 127.113 65.1488 125.116C67.0915 123.119 69.8789 122.12 73.5194 122.12C75.5682 122.12 77.9679 122.441 80.7187 123.086V143.399H75.2988L75.4213 140.099H75.258C74.556 141.361 73.7031 142.324 72.6909 142.993C71.6788 143.663 70.5401 144 69.2749 144C67.1159 144 65.4059 143.087 64.1366 141.264H64.1407ZM72.9562 137.724C73.7643 136.839 74.5193 135.658 75.2213 134.185V127.426C74.3601 127.186 73.4949 127.065 72.6338 127.065C71.0176 127.065 69.7973 127.613 68.9729 128.713C68.1485 129.813 67.7404 131.436 67.7404 133.58C67.7404 135.268 67.9812 136.604 68.4668 137.582C68.9525 138.561 69.6259 139.052 70.487 139.052C71.3482 139.052 72.144 138.609 72.9521 137.724H72.9562Z" fill="#23353E"/>
<path d="M84.6448 138.528H88.3261V118.857H84.8489V114.03H94.0276V138.528H97.7089V143.395H84.6448V138.528Z" fill="#23353E"/>
<path d="M101.672 116.608H118.131V121.678H107.536V127.791H116.311V132.821H107.536V143.399H101.672V116.608Z" fill="#23353E"/>
<path d="M122.258 141.264C120.988 139.441 120.356 136.961 120.356 133.823C120.356 130.016 121.327 127.113 123.266 125.116C125.208 123.119 127.996 122.12 131.636 122.12C133.685 122.12 136.085 122.441 138.835 123.086V143.399H133.416L133.538 140.099H133.379C132.677 141.361 131.82 142.324 130.812 142.993C129.8 143.663 128.661 144 127.396 144C125.237 144 123.527 143.087 122.258 141.264ZM131.073 137.724C131.881 136.839 132.636 135.658 133.338 134.185V127.426C132.473 127.186 131.612 127.065 130.751 127.065C129.134 127.065 127.91 127.613 127.09 128.713C126.265 129.813 125.857 131.436 125.857 133.58C125.857 135.268 126.098 136.604 126.584 137.582C127.069 138.561 127.743 139.052 128.604 139.052C129.465 139.052 130.261 138.609 131.069 137.724H131.073Z" fill="#23353E"/>
<path d="M144.423 122.681H150.124V126.058H150.447C151.23 124.69 152.006 123.683 152.773 123.042C153.54 122.4 154.503 122.076 155.662 122.076C156.148 122.076 156.552 122.128 156.875 122.238L156.266 128.351C155.564 128.165 154.997 128.071 154.569 128.071C153.948 128.071 153.401 128.193 152.932 128.433C152.459 128.672 152.042 128.997 151.679 129.399C151.316 129.801 150.794 130.418 150.12 131.25V143.399H144.419V122.685L144.423 122.681Z" fill="#23353E"/>
<path d="M160.437 122.681H166.016V125.9C167.661 123.379 169.886 122.116 172.689 122.116C174.281 122.116 175.636 122.486 176.754 123.224C177.872 123.963 178.689 125.015 179.203 126.383C180.146 124.909 181.207 123.829 182.378 123.143C183.549 122.461 184.892 122.116 186.402 122.116C188.639 122.116 190.386 122.782 191.638 124.109C192.891 125.437 193.52 127.28 193.52 129.642V143.399H187.818V130.527C187.818 129.455 187.557 128.615 187.031 128.014C186.504 127.414 185.798 127.109 184.909 127.109C183.803 127.109 182.778 127.564 181.835 128.477C180.893 129.391 180.191 130.556 179.734 131.976V143.399H174.032V130.527C174.032 129.48 173.763 128.652 173.224 128.035C172.685 127.418 171.971 127.109 171.081 127.109C170.085 127.109 169.147 127.479 168.269 128.217C167.392 128.956 166.686 129.995 166.147 131.335V143.403H160.446V122.689L160.437 122.681Z" fill="#23353E"/>
<path d="M200.658 141.106C198.732 139.173 197.769 136.494 197.769 133.06C197.769 130.836 198.185 128.895 199.021 127.247C199.858 125.599 201.038 124.333 202.56 123.448C204.082 122.563 205.87 122.12 207.919 122.12C210.939 122.12 213.257 123.086 214.873 125.015C216.489 126.947 217.301 129.736 217.301 133.381C217.301 133.998 217.289 134.453 217.261 134.749H203.511C203.78 136.17 204.401 137.249 205.372 137.988C206.343 138.727 207.649 139.092 209.294 139.092C210.29 139.092 211.331 138.966 212.408 138.711C213.485 138.455 214.428 138.114 215.24 137.684L216.171 142.23C215.093 142.794 213.898 143.229 212.592 143.537C211.282 143.846 209.955 144 208.608 144C205.237 144 202.589 143.034 200.662 141.106H200.658ZM211.841 130.487C211.759 129.334 211.355 128.416 210.629 127.73C209.902 127.048 208.931 126.703 207.719 126.703C206.506 126.703 205.609 127.04 204.866 127.71C204.123 128.38 203.658 129.305 203.47 130.487H211.841Z" fill="#23353E"/>
<path d="M221.664 122.681H227.366V126.058H227.688C228.472 124.69 229.247 123.683 230.014 123.042C230.782 122.4 231.745 122.076 232.904 122.076C233.39 122.076 233.794 122.128 234.116 122.238L233.508 128.351C232.806 128.165 232.239 128.071 231.81 128.071C231.19 128.071 230.643 128.193 230.173 128.433C229.7 128.672 229.284 128.997 228.921 129.399C228.557 129.801 228.035 130.418 227.362 131.25V143.399H221.66V122.685L221.664 122.681Z" fill="#23353E"/>
<path d="M239.483 143.598C238.254 143.33 237.21 142.969 236.348 142.514L236.875 137.688C237.793 138.252 238.801 138.707 239.907 139.056C241.013 139.405 242.05 139.579 243.021 139.579C243.94 139.579 244.707 139.413 245.327 139.076C245.948 138.739 246.258 138.252 246.258 137.607C246.258 137.099 246.041 136.701 245.609 136.421C245.176 136.141 244.356 135.784 243.144 135.354L242.05 134.952C240.891 134.522 239.948 134.116 239.218 133.726C238.491 133.336 237.83 132.739 237.234 131.936C236.642 131.132 236.344 130.073 236.344 128.757C236.344 126.667 237.132 125.035 238.711 123.87C240.291 122.705 242.344 122.12 244.878 122.12C246.874 122.12 248.976 122.51 251.188 123.285L250.421 128.071C249.637 127.617 248.755 127.247 247.772 126.967C246.788 126.687 245.866 126.545 245.001 126.545C244.135 126.545 243.405 126.691 242.878 126.987C242.352 127.284 242.091 127.71 242.091 128.274C242.091 128.838 242.307 129.212 242.74 129.48C243.172 129.748 243.899 130.056 244.923 130.405C245.731 130.702 246.205 130.876 246.339 130.929C247.47 131.384 248.417 131.826 249.172 132.256C249.927 132.687 250.588 133.324 251.155 134.168C251.722 135.013 252.004 136.092 252.004 137.408C252.004 139.608 251.208 141.256 249.617 142.356C248.025 143.456 245.923 144.004 243.307 144.004C241.985 144.004 240.711 143.87 239.487 143.602L239.483 143.598Z" fill="#23353E"/>
</g>
<defs>
<clipPath id="clip0_120_2392">
<rect width="252" height="144" fill="white"/>
</clipPath>
</defs>
</svg>
